<svg width="21" height="27" viewBox="0 0 21 27" fill="none" xmlns="http://www.w3.org/2000/svg">
<path d="M10.375 26C15.5219 26 19.75 21.9212 19.75 16.6862C19.75 15.4012 19.6844 14.0238 18.9719 11.8825C18.2594 9.74125 18.1162 9.465 17.3631 8.1425C17.0412 10.8406 15.3194 11.9656 14.8819 12.3019C14.8819 11.9519 13.8406 8.085 12.2612 5.77063C10.7106 3.5 8.60187 2.01063 7.36562 1C7.36562 2.91875 6.82625 5.77125 6.05312 7.225C5.28062 8.67812 5.13562 8.73125 4.17 9.8125C3.205 10.8937 2.76188 11.2281 1.95438 12.5406C1.1475 13.8531 1 15.6012 1 16.8862C1 22.1212 5.22813 26 10.375 26Z" stroke="#F8F8F8" stroke-width="2" stroke-linejoin="round"/>
</svg>
