<svg width="49" height="52" viewBox="0 0 49 52" fill="none" xmlns="http://www.w3.org/2000/svg">
<path d="M39.8125 26.1587H33.6875C32.8755 26.1595 32.097 26.4919 31.5229 27.0829C30.9487 27.6739 30.6258 28.4752 30.625 29.311V48.2248H33.6875V40.3441H39.8125V48.2248H42.875V29.311C42.8742 28.4752 42.5513 27.6739 41.9771 27.0829C41.403 26.4919 40.6245 26.1595 39.8125 26.1587ZM33.6875 37.1918V29.311H39.8125V37.1918H33.6875Z" fill="#F8F8F8"/>
<path d="M24.5 43.4962C21.696 43.4973 18.9363 42.7769 16.4717 41.4005C14.0071 40.0242 11.9158 38.0356 10.388 35.6154H18.375V32.4631H6.125V45.0724H9.1875V39.2642C11.0584 41.5746 13.3997 43.4335 16.0458 44.7096C18.6918 45.9856 21.578 46.6475 24.5 46.6485V43.4962Z" fill="#F8F8F8"/>
<path d="M30.625 16.7018H38.6105C36.6306 13.5692 33.7201 11.1792 30.313 9.88808C26.9059 8.59697 23.1846 8.47393 19.704 9.5373C16.2234 10.6007 13.1699 12.7935 10.9988 15.7888C8.82766 18.7841 7.65522 22.4215 7.65625 26.1587H4.59375C4.59547 21.946 5.85813 17.8362 8.2099 14.3885C10.5617 10.9408 13.8883 8.32273 17.7372 6.89048C21.5861 5.45824 25.7702 5.28142 29.7201 6.38408C33.6701 7.48675 37.1941 9.81535 39.8125 13.053V7.24487H42.875V19.8541H30.625V16.7018Z" fill="#F8F8F8"/>
</svg>
