<svg width="28" height="29" viewBox="0 0 28 29" fill="none" xmlns="http://www.w3.org/2000/svg">
<path d="M27.2633 14.2247C27.2752 16.9567 26.4873 19.6309 24.9993 21.9092C23.5113 24.1875 21.39 25.9675 18.9037 27.0241C16.4174 28.0807 13.6777 28.3664 11.031 27.8452C8.38443 27.324 5.94979 26.0192 4.035 24.0958C2.12021 22.1725 0.811265 19.7169 0.273705 17.0397C-0.263854 14.3625 -0.00588948 11.5839 1.01498 9.05527C2.03585 6.52664 3.77376 4.36155 6.00896 2.8338C8.24415 1.30605 10.8762 0.484265 13.5723 0.47236C17.1875 0.456397 20.6609 1.8963 23.2285 4.47534C25.796 7.05437 27.2474 10.5613 27.2633 14.2247Z" fill="#8DC63F"/>
<path d="M26.2408 14.2299C26.2521 16.7566 25.5238 19.23 24.1478 21.3372C22.7719 23.4445 20.8102 25.091 18.5108 26.0685C16.2114 27.0459 13.6776 27.3105 11.2298 26.8288C8.78202 26.347 6.53018 25.1406 4.75906 23.3619C2.98794 21.5833 1.77709 19.3124 1.27962 16.8365C0.782165 14.3605 1.02044 11.7907 1.96432 9.45194C2.9082 7.1132 4.51529 5.11061 6.58235 3.69741C8.64942 2.28421 11.0836 1.52389 13.5771 1.51257C16.9206 1.49767 20.133 2.82907 22.5078 5.21395C24.8826 7.59882 26.2254 10.8419 26.2408 14.2299Z" fill="#F9E988"/>
<path d="M13.8636 2.34035C14.6651 2.1962 15.4853 2.1962 16.2867 2.34035C17.0959 2.47018 17.8781 2.73574 18.6011 3.12611C19.3203 3.5265 19.9416 4.07002 20.56 4.57951C21.1783 5.08901 21.7937 5.61051 22.3795 6.18106C22.9775 6.74272 23.4993 7.38224 23.9314 8.0829C24.3762 8.77801 24.7408 9.52261 25.0179 10.302C25.5444 11.8696 25.7272 13.5582 25.4644 15.1687H25.3864C25.1226 13.5722 24.7651 12.0507 24.201 10.6033C23.9363 9.87448 23.6248 9.16395 23.2685 8.47628C22.8968 7.78851 22.4872 7.12248 22.0417 6.48135C21.5886 5.8332 21.0332 5.26506 20.398 4.79973C19.7579 4.33728 19.022 4.03799 18.3097 3.75372C17.5975 3.46944 16.8913 3.17516 16.1484 2.95895C15.4056 2.74274 14.6509 2.58058 13.8626 2.42343L13.8636 2.34035Z" fill="white"/>
<path d="M20.0265 9.72051C19.1118 9.45225 18.1635 9.07188 17.2033 8.68751C17.148 8.44327 16.9347 8.13898 16.503 7.76762C15.8757 7.21608 14.6973 7.2301 13.6788 7.47433C12.5547 7.20607 11.4444 7.11098 10.3786 7.37424C1.6612 9.80759 6.60418 15.7443 3.40369 21.7121C3.85907 22.691 8.76748 28.4026 15.8698 26.8701C15.8698 26.8701 13.4408 20.9554 18.9221 18.1166C23.3682 15.8054 26.5806 11.5293 20.0265 9.72051Z" fill="#8BC53F"/>
<path d="M21.1032 13.6052C21.1038 13.7111 21.0734 13.8148 21.0158 13.9032C20.9582 13.9916 20.8761 14.0607 20.7797 14.1018C20.6834 14.1429 20.5772 14.1541 20.4746 14.134C20.372 14.1139 20.2775 14.0635 20.2032 13.989C20.1289 13.9145 20.078 13.8194 20.057 13.7156C20.0361 13.6119 20.0459 13.5041 20.0854 13.4061C20.1249 13.308 20.1921 13.224 20.2787 13.1646C20.3653 13.1053 20.4673 13.0733 20.5718 13.0727C20.7119 13.0722 20.8465 13.1279 20.9461 13.2277C21.0457 13.3275 21.1022 13.4633 21.1032 13.6052Z" fill="white"/>
<path d="M13.6789 7.47029C14.314 7.51633 16.6107 8.27106 17.2034 8.68346C16.7095 7.23206 15.047 7.03887 13.6789 7.47029Z" fill="#009345"/>
<path d="M14.2834 11.1409C14.2836 11.6295 14.1408 12.1073 13.873 12.5136C13.6053 12.92 13.2246 13.2368 12.7791 13.424C12.3337 13.6111 11.8435 13.6602 11.3705 13.5649C10.8975 13.4697 10.463 13.2345 10.122 12.8891C9.78094 12.5436 9.54866 12.1035 9.45451 11.6242C9.36036 11.145 9.40858 10.6482 9.59307 10.1968C9.77756 9.74529 10.09 9.35941 10.491 9.08791C10.8919 8.81642 11.3633 8.67151 11.8455 8.67151C12.1656 8.67138 12.4826 8.73515 12.7784 8.85919C13.0741 8.98323 13.3429 9.16511 13.5693 9.39442C13.7957 9.62374 13.9753 9.89601 14.0978 10.1957C14.2203 10.4953 14.2834 10.8165 14.2834 11.1409Z" fill="white"/>
<path d="M13.5603 11.1629C13.5603 11.5066 13.4598 11.8426 13.2713 12.1283C13.0829 12.4141 12.8151 12.6368 12.5017 12.7683C12.1884 12.8998 11.8436 12.9342 11.511 12.8672C11.1783 12.8002 10.8728 12.6347 10.6329 12.3916C10.3931 12.1486 10.2298 11.839 10.1636 11.5019C10.0975 11.1648 10.1314 10.8154 10.2612 10.4979C10.391 10.1804 10.6108 9.90902 10.8928 9.71808C11.1748 9.52715 11.5063 9.42523 11.8455 9.42523C12.3003 9.42523 12.7365 9.60831 13.0581 9.93419C13.3797 10.2601 13.5603 10.702 13.5603 11.1629Z" fill="#58595B"/>
<path d="M23.0779 14.6943C21.1023 16.1046 18.856 17.1747 15.6693 17.1747C14.1777 17.1747 13.8755 15.5731 12.8896 16.3559C12.3809 16.7623 10.5871 17.6711 9.16362 17.6021C7.7402 17.533 5.43268 16.6872 4.78962 13.6082C4.53476 16.6872 4.40437 18.9554 3.26346 21.5549C5.53541 25.2415 10.9525 28.0852 15.8698 26.86C15.3414 23.1214 18.5656 19.4599 20.3821 17.5861C21.0736 16.8764 22.3874 15.7183 23.0779 14.6923V14.6943Z" fill="#8BC53F"/>
<path d="M23.0008 14.7863C22.3874 15.3529 21.6574 15.7723 20.9146 16.1427C20.1627 16.5044 19.3789 16.7936 18.5735 17.0065C17.7674 17.2177 16.9268 17.3768 16.0753 17.2988C15.2238 17.2207 14.3536 16.9274 13.7895 16.2808L13.8162 16.2498C14.5077 16.7042 15.3058 16.8643 16.1 16.8874C16.905 16.9122 17.7102 16.845 18.5004 16.6872C19.2986 16.5179 20.0794 16.2732 20.8326 15.9565C21.5863 15.6412 22.3321 15.2758 22.9741 14.7553L23.0008 14.7863Z" fill="#58595B"/>
</svg>
