<svg width="20" height="20" viewBox="0 0 20 20" fill="none" xmlns="http://www.w3.org/2000/svg">
<g clip-path="url(#clip0_369_104)">
<path d="M9.00167 14.8083C9.0786 14.8084 9.15476 14.8237 9.22579 14.8532C9.29683 14.8828 9.36135 14.926 9.41567 14.9805C9.46999 15.035 9.51305 15.0996 9.54239 15.1707C9.57173 15.2419 9.58678 15.3181 9.58667 15.395C9.58656 15.4719 9.5713 15.5481 9.54175 15.6191C9.51221 15.6902 9.46897 15.7547 9.41449 15.809C9.36001 15.8633 9.29537 15.9064 9.22425 15.9357C9.15313 15.9651 9.07693 15.9801 9 15.98C8.84463 15.9798 8.69571 15.9178 8.586 15.8078C8.47629 15.6978 8.41478 15.5487 8.415 15.3933C8.41522 15.238 8.47716 15.089 8.58718 14.9793C8.6972 14.8696 8.84629 14.8081 9.00167 14.8083ZM18.1883 11.1858C18.1114 11.1858 18.0352 11.1706 17.9642 11.1411C17.8931 11.1116 17.8286 11.0684 17.7742 11.014C17.7198 10.9595 17.6767 10.8949 17.6474 10.8238C17.618 10.7527 17.6029 10.6765 17.6029 10.5996C17.603 10.5226 17.6182 10.4465 17.6477 10.3754C17.6772 10.3044 17.7204 10.2398 17.7748 10.1855C17.8292 10.1311 17.8938 10.088 17.9649 10.0586C18.036 10.0292 18.1122 10.0141 18.1892 10.0142C18.3445 10.0143 18.4935 10.0761 18.6033 10.186C18.7131 10.296 18.7747 10.445 18.7746 10.6004C18.7745 10.7558 18.7126 10.9048 18.6027 11.0145C18.4928 11.1243 18.3437 11.1859 18.1883 11.1858ZM18.1883 8.78916C17.708 8.78961 17.2474 8.98062 16.9078 9.32028C16.5681 9.65993 16.3771 10.1205 16.3767 10.6008C16.3767 10.795 16.4092 10.9883 16.4725 11.1767L10.4883 14.3625C10.3224 14.1216 10.1004 13.9246 9.84138 13.7886C9.58239 13.6525 9.29421 13.5815 9.00167 13.5817C8.31083 13.5817 7.68167 13.9775 7.37667 14.595L2.00083 11.76C1.4325 11.4617 1.0075 10.5267 1.0525 9.675C1.07583 9.23083 1.22917 8.88583 1.46333 8.7525C1.61167 8.66916 1.79 8.67583 1.98 8.775L2.015 8.79416C3.44 9.54416 8.10167 12 8.29833 12.0908C8.60083 12.2317 8.76917 12.2883 9.28583 12.0433L18.9225 7.03166C19.0642 6.97833 19.2292 6.8425 19.2292 6.63666C19.2292 6.35166 18.9342 6.23916 18.9333 6.23916C18.385 5.97666 17.5425 5.5825 16.7208 5.1975C14.9642 4.375 12.9733 3.44333 12.0992 2.985C11.3442 2.59 10.7367 2.92333 10.6283 2.99L10.4183 3.09416C6.48333 5.04 1.21667 7.64833 0.916667 7.83083C0.380833 8.1575 0.0483333 8.80833 0.00499994 9.61583C-0.0616667 10.8967 0.590833 12.2325 1.525 12.7217L7.21 15.6533C7.27263 16.084 7.4881 16.4777 7.81706 16.7626C8.14602 17.0475 8.56649 17.2045 9.00167 17.205C9.47694 17.2042 9.93292 17.0169 10.2716 16.6834C10.6102 16.3499 10.8044 15.8969 10.8125 15.4217L17.0742 12.0275C17.3908 12.2758 17.785 12.4117 18.1883 12.4117C18.6687 12.4112 19.1292 12.2202 19.4689 11.8806C19.8085 11.5409 19.9996 11.0803 20 10.6C19.9996 10.1196 19.8085 9.6591 19.4689 9.31944C19.1292 8.97978 18.6687 8.78877 18.1883 8.78833" fill="#F8F8F8"/>
</g>
<defs>
<clipPath id="clip0_369_104">
<rect width="20" height="20" fill="white"/>
</clipPath>
</defs>
</svg>
