<svg width="32" height="32" viewBox="0 0 32 32" fill="none" xmlns="http://www.w3.org/2000/svg">
<path d="M4.82498 12.6637L4.8248 12.6642C4.54778 13.3783 4.12159 13.9047 3.81409 14.2845C3.79988 14.3021 3.78593 14.3193 3.77225 14.3362C3.42828 14.762 3.29489 14.96 3.2471 15.1664C3.21045 15.3274 3.25693 15.5563 3.45028 15.7793C3.64954 16.0092 3.88737 16.0956 4.0332 16.0906C4.13525 16.0871 4.3528 16.0443 4.69468 15.9263C5.01749 15.8149 5.38521 15.6601 5.76212 15.4856C6.51507 15.1371 7.24592 14.7379 7.63102 14.5249L7.63185 14.5245C8.10572 14.263 8.87463 13.8848 9.50549 13.5807C9.82507 13.4267 10.1163 13.2883 10.3275 13.1885C10.4332 13.1385 10.519 13.0981 10.5785 13.0702L10.6353 13.0435L10.6454 13.0378C10.6758 13.0207 10.7192 12.9967 10.7742 12.9668C10.8842 12.9071 11.0413 12.8239 11.2362 12.7267C11.6248 12.5327 12.1697 12.2794 12.7939 12.0433C13.9812 11.5944 15.6892 11.1148 17.1516 11.4709C18.3998 11.7748 19.4925 12.2687 20.3317 13.0609C21.1851 13.8666 21.7057 14.9142 21.9122 16.1903C22.1099 17.4125 22.0162 18.3575 21.852 19.0247C21.7703 19.3566 21.6722 19.6155 21.5875 19.8017C21.5576 19.8677 21.5293 19.9245 21.5041 19.9721C21.5005 19.9848 21.4966 19.9983 21.4924 20.0126C21.4613 20.119 21.4154 20.2671 21.3539 20.4424C21.2321 20.7892 21.0427 21.2615 20.7757 21.7343C20.4704 22.2748 19.9257 22.882 19.3481 23.3307C19.0545 23.5587 18.7153 23.7752 18.355 23.9189C18.0075 24.0575 17.5389 24.1686 17.0476 24.0401C16.5986 23.9233 16.2703 23.6565 16.0413 23.4261C15.8387 23.2223 15.6494 22.9783 15.4966 22.7813C15.481 22.7611 15.4657 22.7414 15.4508 22.7223C15.0906 22.2594 14.8114 21.9378 14.4341 21.7538L14.4334 21.7534C14.1435 21.6117 13.8058 21.4988 13.463 21.4182C13.5415 21.5478 13.6035 21.6754 13.6482 21.7693C13.7174 21.9149 13.7916 22.0844 13.8605 22.242C13.8817 22.2906 13.9025 22.3381 13.9225 22.3834C14.0137 22.5902 14.0972 22.7723 14.1776 22.9225C14.2659 23.0873 14.3135 23.1417 14.3121 23.1404C14.4604 23.2887 14.7358 23.5028 15.0155 23.7037C15.1472 23.7982 15.2671 23.8809 15.354 23.9398C15.3973 23.9691 15.4321 23.9923 15.4556 24.008L15.4819 24.0254L15.4881 24.0295L15.4893 24.0302L15.4893 24.0303L15.4894 24.0303L15.4895 24.0303L16.404 24.6275L15.7293 25.4847L15.7291 25.485L15.729 25.4851L15.7287 25.4855L15.7285 25.4857L15.7283 25.486L15.7249 25.4903L15.7033 25.5189C15.6834 25.5455 15.6531 25.5866 15.6159 25.6395C15.5408 25.746 15.4402 25.8961 15.3389 26.069C15.1141 26.4522 14.9711 26.8047 14.9546 27.0213C14.9273 27.3783 14.9441 27.7406 14.9614 28.114C14.9626 28.1417 14.9639 28.1694 14.9652 28.1971C14.9716 28.3376 14.9781 28.4906 14.9785 28.6377C15.3644 28.2835 15.6717 27.9233 15.8128 27.6484C16.0447 27.1965 16.2238 26.807 16.3821 26.4626C16.4319 26.3542 16.4798 26.2502 16.5265 26.1501C16.62 25.95 16.7165 25.7504 16.8148 25.5786C16.9046 25.4218 17.0428 25.2023 17.2448 25.027C17.3875 24.9032 17.544 24.836 17.5952 24.814L17.5977 24.8129C17.675 24.7796 17.7584 24.7493 17.8327 24.7234C17.9171 24.694 18.0275 24.6576 18.1446 24.619C18.2221 24.5934 18.3024 24.5669 18.3801 24.5408C18.8007 24.3997 19.3456 24.2053 19.9556 23.9217C21.1772 23.3536 22.6409 22.4363 23.8346 20.9092C26.243 17.828 26.2965 14.0227 26.2283 12.3072C26.2062 11.751 26.1136 11.2488 26.0141 10.7089C25.9697 10.4682 25.924 10.2199 25.8825 9.95601C25.7675 9.22525 25.6565 8.21873 26.1985 7.37467C26.5905 6.76425 27.0223 6.3625 27.4437 6.09409C27.839 5.84221 28.1963 5.7288 28.3852 5.66881C28.395 5.66571 28.4043 5.66275 28.4132 5.65992L28.4147 5.65944C28.4307 5.65436 28.4474 5.64913 28.4642 5.64387C28.4331 5.60883 28.3974 5.57221 28.3567 5.53436C28.0811 5.27824 27.5199 4.91837 26.3982 4.65336C25.6689 4.48201 24.9021 4.49234 24.2945 4.55503C23.9955 4.58588 23.7465 4.62817 23.5751 4.66206C23.4897 4.67895 23.4242 4.69362 23.3823 4.70349C23.3614 4.70841 23.3463 4.71213 23.3377 4.71431L23.3314 4.7159L23.331 4.71601L23.3306 4.71611L23.33 4.71627L23.3296 4.71638L23.3292 4.71648L22.8929 4.83343L22.5171 4.58158L22.5167 4.58132L22.5163 4.58106L22.5163 4.58105L22.5158 4.58072L22.5086 4.57597C22.5007 4.57083 22.4874 4.56222 22.4689 4.55043C22.4319 4.52685 22.3739 4.49059 22.2963 4.44393C22.1411 4.35055 21.9076 4.21584 21.6062 4.05795C21.0022 3.74163 20.1312 3.33534 19.0734 2.98146C16.9476 2.2703 14.1369 1.79313 11.2339 2.60315L4.82498 12.6637ZM4.82498 12.6637C5.0048 12.1995 4.92156 11.7697 4.82252 11.476C4.7377 11.2244 4.60369 10.9698 4.50575 10.7837C4.49689 10.7668 4.48832 10.7506 4.48011 10.7349C4.25079 10.2973 4.09424 9.96127 4.08202 9.56424L4.08198 9.56283M4.82498 12.6637L4.08198 9.56283M4.08198 9.56283C4.02705 7.85628 5.53705 4.19392 11.2338 2.6032L4.08198 9.56283ZM11.831 21.3247C11.8309 21.3247 11.8322 21.3241 11.8351 21.3231C11.8325 21.3242 11.8311 21.3247 11.831 21.3247ZM10.965 1.64C4.91249 3.33 3.00999 7.3425 3.08249 9.595L10.965 1.64Z" stroke="white" stroke-width="2"/>
<path d="M15.1925 10.9714L12.8 12.3089C12.8 12.3089 12.92 13.8689 13.645 14.9839C14.125 15.7239 14.8425 16.3564 15.545 16.6039C16.3775 16.8964 17.265 16.8939 17.305 16.6739C17.375 16.2864 16.755 15.8039 16.46 14.9839C16.2025 14.2689 16.1775 11.6764 16.1775 11.6764L15.1925 10.9714Z" fill="white"/>
<path d="M10.21 7.83253C10.5475 8.35503 10.42 8.98753 9.94499 9.29253C9.46999 9.59753 8.69749 9.42753 8.35999 8.90503C8.02249 8.38253 8.14249 7.59753 8.65999 7.37503C9.41749 7.04753 9.87249 7.31003 10.21 7.83253Z" fill="white"/>
<path d="M2.30749 15.77C2.30749 15.77 3.16499 15.795 3.59249 15.6475C4.66499 15.2725 5.94999 14.0825 6.53249 13.535C7.01499 13.0825 7.695 12.285 8.1175 11.8625C8.54 11.44 8.94499 10.9825 9.1375 11.0525C9.33 11.1225 9.52499 11.615 9.4725 11.8275C9.41999 12.0375 7.99499 13.305 7.30749 13.94C6.61999 14.5725 5.47749 15.6125 4.66749 16.0175C4.31499 16.195 3.68249 16.47 2.95999 16.405C2.51999 16.365 2.28999 15.9275 2.30749 15.77Z" fill="white"/>
</svg>
