<svg width="58" height="61" viewBox="0 0 58 61" fill="none" xmlns="http://www.w3.org/2000/svg">
<path d="M53.1667 16.4287C53.1667 14.9443 52.5938 13.5207 51.574 12.4711C50.5543 11.4215 49.1713 10.8318 47.7292 10.8318L10.2708 10.8318C8.82871 10.8318 7.44566 11.4215 6.42593 12.4711C5.4062 13.5207 4.83332 14.9443 4.83332 16.4287L4.83332 35.0852C4.83326 36.5606 5.39916 37.9764 6.40794 39.0245C7.41672 40.0727 8.78677 40.6684 10.2201 40.6822L13.8934 40.6822C14.3741 40.6822 14.8351 40.4856 15.175 40.1357C15.5149 39.7859 15.7059 39.3113 15.7059 38.8165C15.7059 37.6897 16.0032 36.9782 16.3874 36.4882C16.791 35.9708 17.4145 35.5429 18.2942 35.2171C20.1187 34.538 22.5233 34.4658 24.7708 34.4658C25.2302 34.4658 25.6725 34.2862 26.0082 33.9634L26.4359 33.5529C26.582 33.4191 26.7215 33.278 26.854 33.13C27.0232 32.946 27.5427 32.3838 29.6767 30.1873C30.8101 29.0206 31.7671 28.3764 32.4993 28.1649C32.7529 28.0794 33.0242 28.0657 33.2847 28.1251C33.5852 28.2187 33.8551 28.3951 34.0653 28.6351C34.2975 28.8508 34.468 29.1278 34.5583 29.436C34.6161 29.7034 34.6027 29.9818 34.5197 30.242C34.3142 30.9932 33.6835 31.9783 32.5501 33.145C31.2451 34.4882 30.0222 35.7643 28.9251 36.9061C27.1077 38.7966 25.6384 40.3215 24.7442 41.1847C24.3956 41.5229 24.1912 41.9894 24.1758 42.4822C24.1603 42.9751 24.335 43.4542 24.6618 43.8148C24.9885 44.1754 25.4406 44.3882 25.9193 44.4067C26.3981 44.4252 26.8644 44.2479 27.2165 43.9135C28.2924 42.8546 29.351 41.7774 30.392 40.6822L38.5217 40.6822L31.6535 47.7493C30.6337 48.799 29.2513 49.391 27.811 49.391L6.64582 49.391C6.16511 49.391 5.7041 49.5876 5.36419 49.9375C5.02428 50.2873 4.83332 50.7619 4.83332 51.2567C4.83332 51.7515 5.02428 52.226 5.36419 52.5759C5.7041 52.9258 6.16511 53.1223 6.64582 53.1223L27.8086 53.1223C28.9989 53.1222 30.1776 52.8808 31.2773 52.4117C32.3769 51.9426 33.3761 51.2551 34.2176 50.3885L43.6474 40.6822L47.7316 40.6822C49.1733 40.6815 50.5557 40.0916 51.5749 39.042C52.5941 37.9924 53.1667 36.5692 53.1667 35.0852L53.1667 16.4287ZM17.0617 31.7072C16.414 31.9485 15.7712 32.2594 15.1718 32.6624C14.7284 31.7118 14.033 30.9095 13.1659 30.348C12.2988 29.7864 11.2953 29.4884 10.2708 29.4883L8.45832 29.4883L8.45832 22.0257L10.2708 22.0257C11.7129 22.0257 13.096 21.436 14.1157 20.3864C15.1354 19.3367 15.7083 17.9131 15.7083 16.4287L15.7083 14.5631L42.2917 14.5631L42.2917 16.4287C42.2917 17.9131 42.8645 19.3367 43.8843 20.3864C44.904 21.436 46.287 22.0257 47.7292 22.0257L49.5417 22.0257L49.5417 29.4883L47.7292 29.4883C46.287 29.4883 44.904 30.078 43.8843 31.1276C42.8645 32.1772 42.2917 33.6008 42.2917 35.0852L42.2917 36.9509L33.9832 36.9509L35.1142 35.7842C36.3974 34.4633 37.5502 32.9285 38.0093 31.2544C38.2664 30.3608 38.2873 29.4128 38.0697 28.5082C37.9283 27.9478 37.6954 27.4162 37.381 26.9361C37.5674 25.5297 37.4168 24.0977 36.9425 22.7649C36.4683 21.4321 35.6846 20.2388 34.6598 19.2891C33.6349 18.3394 32.4001 17.6619 31.0627 17.3158C29.7254 16.9697 28.3261 16.9654 26.9867 17.3033C25.6474 17.6412 24.4086 18.3111 23.3783 19.2545C22.348 20.1979 21.5575 21.3863 21.0755 22.7162C20.5935 24.0461 20.4346 25.4771 20.6129 26.8846C20.7911 28.2921 21.3009 29.6335 22.098 30.7918C20.445 30.8838 18.6494 31.1151 17.0617 31.7072ZM29 20.7819C30.0528 20.7817 31.0769 21.1353 31.9166 21.7891C32.7563 22.4428 33.3657 23.3609 33.6521 24.4038C32.9371 24.3078 32.2105 24.3654 31.5182 24.5729C29.8917 25.0431 28.3982 26.2271 27.1126 27.5505L25.5127 29.2047C24.8557 28.5012 24.4143 27.6143 24.2432 26.6545C24.0722 25.6946 24.1792 24.7042 24.5509 23.8065C24.9226 22.9088 25.5425 22.1434 26.3336 21.6056C27.1247 21.0678 28.0519 20.7814 29 20.7819ZM47.7292 14.5631C48.2099 14.5631 48.6709 14.7596 49.0108 15.1095C49.3507 15.4594 49.5417 15.9339 49.5417 16.4287L49.5417 18.2944L47.7292 18.2944C47.2485 18.2944 46.7874 18.0978 46.4475 17.7479C46.1076 17.3981 45.9167 16.9235 45.9167 16.4287L45.9167 14.5631L47.7292 14.5631ZM49.5417 33.2196L49.5417 35.0852C49.5417 35.58 49.3507 36.0546 49.0108 36.4044C48.6709 36.7543 48.2099 36.9509 47.7292 36.9509L45.9167 36.9509L45.9167 35.0852C45.9167 34.5904 46.1076 34.1159 46.4475 33.766C46.7874 33.4161 47.2485 33.2196 47.7292 33.2196L49.5417 33.2196ZM12.0833 36.9509L10.2708 36.9509C9.79011 36.9509 9.3291 36.7543 8.98919 36.4044C8.64928 36.0546 8.45832 35.58 8.45832 35.0852L8.45832 33.2196L10.2708 33.2196C10.7515 33.2196 11.2125 33.4161 11.5525 33.766C11.8924 34.1159 12.0833 34.5904 12.0833 35.0852L12.0833 36.9509ZM8.45832 18.2944L8.45832 16.4287C8.45832 15.9339 8.64928 15.4594 8.98919 15.1095C9.3291 14.7596 9.79012 14.5631 10.2708 14.5631L12.0833 14.5631L12.0833 16.4287C12.0833 16.9235 11.8924 17.3981 11.5525 17.7479C11.2125 18.0978 10.7515 18.2944 10.2708 18.2944L8.45832 18.2944Z" fill="#F8F8F8"/>
</svg>
