<svg width="450" height="99" viewBox="0 0 450 99" fill="none" xmlns="http://www.w3.org/2000/svg">
<g filter="url(#filter0_d_97_158)">
<path d="M4 1.27124H22.3734V90.3644H4V1.27124ZM12.581 38.1374H69.5184V54.3457H12.581V38.1374ZM57.505 1.27124H75.8784V90.3644H57.505V1.27124Z" fill="url(#paint0_linear_97_158)"/>
</g>
<g filter="url(#filter1_d_97_158)">
<path d="M136.551 55.617V90.0466H118.178V55.617L89.4061 0.95343H108.688L127.364 39.3027L146.041 0.95343H165.323L136.551 55.617Z" fill="url(#paint1_linear_97_158)"/>
</g>
<g filter="url(#filter2_d_97_158)">
<path d="M176.831 0.95343H195.205V90.0466H176.831V0.95343ZM186.119 73.8382H209.54C215.597 73.8382 220.241 72.461 223.572 69.8126C226.904 67.1641 228.519 63.3504 228.519 58.5832V32.4168C228.519 27.5437 226.904 23.8359 223.572 21.1874C220.241 18.539 215.597 17.1618 209.54 17.1618H186.119V0.95343H209.136C217.313 0.95343 224.279 2.22468 230.033 4.66123C235.788 7.20372 240.129 10.8056 243.157 15.5728C246.186 20.3399 247.7 26.1665 247.7 32.8405V58.0535C247.7 64.5157 246.287 70.0244 243.359 74.8975C240.432 79.6647 236.091 83.3725 230.336 86.0209C224.582 88.6694 217.515 90.0466 209.136 90.0466H186.119V73.8382V73.8382Z" fill="url(#paint2_linear_97_158)"/>
</g>
<g filter="url(#filter3_d_97_158)">
<path d="M269.203 0.847504H287.576V90.0466H269.203V0.847504ZM276.573 38.0314H310.594C312.512 38.0314 314.127 37.6077 315.54 36.7602C316.954 35.9127 318.064 34.6415 318.872 33.0524C319.679 31.4633 320.083 29.6624 320.083 27.5437C320.083 25.4249 319.679 23.624 318.872 22.0349C318.064 20.4459 316.954 19.1746 315.54 18.3271C314.127 17.4796 312.411 17.0559 310.493 17.0559H276.573V0.847504H312.007C317.358 0.847504 322.102 1.90688 326.14 4.13156C330.179 6.35623 333.409 9.42841 335.63 13.454C337.851 17.4796 338.961 22.1409 338.961 27.4377C338.961 32.7346 337.851 37.3958 335.63 41.4214C333.409 45.447 330.179 48.5192 326.14 50.7439C322.001 52.9686 317.358 54.0279 312.007 54.0279H276.573V38.0314ZM297.066 51.4855L316.752 48.6252L343.101 90.0466H320.79L297.066 51.4855Z" fill="url(#paint3_linear_97_158)"/>
</g>
<g filter="url(#filter4_d_97_158)">
<path d="M374.598 86.8685C369.247 84.1141 365.007 80.3003 362.08 75.3213C359.152 70.3423 357.638 64.6217 357.638 58.0535V32.8405C357.638 26.2724 359.152 20.5518 362.08 15.5728C365.007 10.5937 369.247 6.77998 374.598 4.02561C379.948 1.27125 386.207 0 393.274 0C400.341 0 406.6 1.37718 411.95 4.02561C417.301 6.77998 421.541 10.5937 424.468 15.5728C427.396 20.5518 428.91 26.2724 428.91 32.8405V58.0535C428.91 64.6217 427.396 70.3423 424.468 75.3213C421.541 80.3003 417.301 84.1141 411.95 86.8685C406.6 89.6228 400.341 90.8941 393.274 90.8941C386.207 91 380.049 89.6228 374.598 86.8685ZM402.057 72.2491C404.581 70.9779 406.499 69.1769 407.912 66.7404C409.326 64.4098 409.931 61.6554 409.931 58.4773V32.4168C409.931 29.3446 409.225 26.5902 407.912 24.1537C406.499 21.823 404.581 19.9162 402.057 18.6449C399.533 17.3737 396.606 16.7381 393.274 16.7381C389.943 16.7381 387.015 17.3737 384.592 18.6449C382.068 19.9162 380.15 21.7171 378.737 24.1537C377.324 26.4843 376.718 29.2386 376.718 32.4168V58.5832C376.718 61.6554 377.424 64.4098 378.737 66.8463C380.15 69.1769 382.068 71.0838 384.592 72.3551C387.116 73.6263 390.044 74.2619 393.274 74.2619C396.606 74.156 399.533 73.5204 402.057 72.2491Z" fill="url(#paint4_linear_97_158)"/>
</g>
<path d="M448.596 30.9336C448.596 30.9336 447.587 31.7811 446.88 32.0989C446.072 32.5227 444.962 33.1583 443.851 32.8405C442.842 32.5227 442.438 32.3108 442.438 31.5693C442.438 31.0396 442.539 28.3911 444.659 28.3911C447.284 28.3911 448.293 29.0268 448.596 29.3446C449 29.8743 449.303 30.298 448.596 30.9336Z" fill="url(#paint5_linear_97_158)"/>
<path d="M408.821 26.1665C411.647 27.8615 414.878 35.383 423.661 34.5355C430.929 33.7939 441.025 31.0396 439.712 33.4761C438.602 35.5949 418.714 39.5146 422.248 43.5402C423.358 44.8114 425.882 44.8114 426.084 45.9767C426.488 48.0955 419.118 52.7567 415.08 59.7485C412.253 64.6217 404.682 71.1898 403.874 71.1898C403.874 71.1898 409.527 67.9057 409.931 59.5367C409.931 59.5367 409.931 34.1118 409.931 31.4633C409.931 29.2387 408.821 26.1665 408.821 26.1665Z" fill="url(#paint6_linear_97_158)"/>
<path d="M176.831 89.1991C176.831 89.1991 186.422 81.6775 189.047 75.2154C190.763 70.9779 194.296 65.8929 200.757 62.5029C206.208 59.6426 208.53 59.007 221.957 53.922C238.513 47.5658 222.765 28.2852 212.367 45.447C208.631 51.6973 203.988 60.0664 193.488 61.1257C175.923 62.8207 176.73 26.0605 176.73 26.0605V89.1991H176.831Z" fill="url(#paint7_linear_97_158)"/>
<path d="M165.323 0.95343C165.323 0.95343 156.035 2.0128 147.656 7.94528C140.69 12.9243 133.018 27.6496 134.532 24.4715C135.138 23.2002 127.364 39.3027 127.364 39.3027L108.688 0.95343H89.4061L118.178 55.7229V90.0466H136.551V55.617L165.323 0.95343Z" fill="url(#paint8_linear_97_158)"/>
<path d="M111.919 8.36902C111.919 8.36902 116.663 8.26308 118.985 8.36902C121.307 8.47496 122.721 7.94527 127.465 8.58089C132.21 9.21652 124.74 15.0431 123.629 18.539C122.519 22.0349 122.721 29.5564 123.629 31.3574C124.538 33.1583 127.465 39.3027 127.465 39.3027L111.919 8.36902Z" fill="#C3DBEA"/>
<path opacity="0.4" d="M89.4061 0.95343C89.4061 0.95343 94.0499 7.09778 97.8861 9.53434C103.237 13.0303 113.029 11.759 114.24 11.6531C117.269 11.2293 127.364 8.68684 127.364 8.68684L105.357 8.36903L89.4061 0.95343Z" fill="black" fill-opacity="0.4"/>
<path d="M89.4061 0.95343C89.4061 0.95343 95.5642 8.26309 104.347 9.95809C113.13 11.6531 127.364 8.5809 127.364 8.5809C127.364 8.5809 125.85 8.26309 118.48 7.20372C110.404 6.03841 108.688 0.95343 108.688 0.95343H89.4061V0.95343Z" fill="#E1F1FA"/>
<path d="M227.005 31.3574C227.005 31.3574 228.923 29.6624 230.134 28.9208C231.548 28.1793 233.668 26.908 235.485 27.8615C237.302 28.709 237.807 29.2386 237.706 31.0396C237.706 32.2049 236.999 38.4552 233.365 38.0314C228.822 37.5017 227.207 35.7008 226.702 34.9592C226.096 33.688 225.692 32.7346 227.005 31.3574Z" fill="url(#paint9_linear_97_158)"/>
<path d="M136.551 90.0466C136.551 90.0466 132.008 84.0082 133.119 77.7579C134.229 71.4016 136.551 67.1642 136.551 67.1642V90.0466Z" fill="url(#paint10_linear_97_158)"/>
<path d="M136.551 67.1642C136.551 67.1642 141.599 58.4773 148.262 56.3586C153.915 54.5576 155.328 52.6508 156.439 45.553C156.843 42.7986 156.338 39.4086 158.256 38.0314C160.275 36.6543 167.443 34.7474 166.13 30.8277C165.02 27.5437 157.448 28.0734 156.338 24.7893C155.53 22.3527 156.944 16.844 158.761 13.3481C160.578 9.85217 136.551 55.7229 136.551 55.7229V67.1642V67.1642Z" fill="url(#paint11_linear_97_158)"/>
<path d="M376.718 59.3248C376.718 59.3248 381.16 60.3842 384.996 56.4645C388.327 53.0745 388.63 51.2736 387.015 45.8708C386.409 43.858 384.794 41.6333 385.703 39.9383C386.611 38.2433 390.245 36.4424 388.63 34.0058C386.914 31.3574 384.289 34.3236 380.554 31.8871C379.847 31.4633 379.04 31.0396 376.617 30.6158L376.718 59.3248Z" fill="#E4F2FA"/>
<path d="M269.203 90.0466C269.203 90.0466 275.361 77.1222 280.611 75.0035C293.836 69.8126 294.744 74.4738 301.508 75.5332C308.978 76.6985 308.978 57.2061 287.072 68.4354C279.5 72.2491 275.361 62.8207 274.049 59.2189C271.727 52.7567 269.203 29.4505 269.203 29.4505V90.0466Z" fill="#E1F1FA"/>
<path d="M4 1.27125V90.3644H22.3734V54.3458H57.505V90.4703H75.8784V1.27125C75.8784 1.27125 70.1241 1.05938 61.745 15.8906C57.3031 23.9418 57.505 38.1374 57.505 38.1374H22.3734V1.27125H4Z" fill="url(#paint12_linear_97_158)"/>
<path d="M75.9794 20.9756C78.3013 23.9418 79.5127 25.213 84.5604 25.213C88.5985 25.213 91.4252 21.8231 93.0404 24.6834C95.6652 29.2387 81.027 36.0186 82.9451 43.4342C83.5508 45.7648 85.0651 45.7648 85.1661 47.8836C85.368 51.9092 80.4213 53.2864 77.5946 59.8545C75.8784 63.8801 75.8784 66.5285 75.8784 66.5285V20.9756H75.9794Z" fill="url(#paint13_linear_97_158)"/>
<path d="M51.6497 39.0908C51.6497 39.0908 53.5678 37.3958 54.7793 36.6543C56.1926 35.9127 58.3126 34.6415 60.1298 35.5949C61.9469 36.4424 62.4517 36.9721 62.3507 38.773C62.3507 39.9383 61.6441 46.1886 58.0098 45.7649C53.4669 45.2352 51.8517 43.4342 51.3469 42.6927C50.8421 41.4214 50.3374 40.468 51.6497 39.0908Z" fill="url(#paint14_linear_97_158)"/>
<path d="M4 10.8056C8.03811 15.9965 10.1581 18.1153 18.941 18.2212C25.9068 18.3271 30.8534 12.2887 33.7811 17.3737C38.324 25.319 12.7829 36.9721 16.2153 50.0023C17.3258 53.922 19.8496 54.028 20.0515 57.8417C20.4553 64.8335 11.8743 67.2701 6.92763 78.6054C4 85.4913 4.80762 90.0466 4 90.1525V10.8056Z" fill="url(#paint15_linear_97_158)"/>
<path d="M4 52.7567C4 52.7567 7.53335 59.4307 10.9657 61.1257C14.3981 62.8207 18.1334 63.3504 23.5848 61.4435C32.6706 58.1595 36.8097 43.4342 45.6935 43.9639C53.9716 44.3877 51.9526 57.7357 40.5449 57.6298C31.5601 57.6298 15.5086 68.6473 12.581 72.2491C6.01906 80.5122 4 90.3644 4 90.3644V52.7567Z" fill="url(#paint16_linear_97_158)"/>
<defs>
<filter id="filter0_d_97_158" x="0" y="1.27124" width="79.8784" height="97.0931" filterUnits="userSpaceOnUse" color-interpolation-filters="sRGB">
<feFlood flood-opacity="0" result="BackgroundImageFix"/>
<feColorMatrix in="SourceAlpha" type="matrix" values="0 0 0 0 0 0 0 0 0 0 0 0 0 0 0 0 0 0 127 0" result="hardAlpha"/>
<feOffset dy="4"/>
<feGaussianBlur stdDeviation="2"/>
<feComposite in2="hardAlpha" operator="out"/>
<feColorMatrix type="matrix" values="0 0 0 0 0 0 0 0 0 0 0 0 0 0 0 0 0 0 0.25 0"/>
<feBlend mode="normal" in2="BackgroundImageFix" result="effect1_dropShadow_97_158"/>
<feBlend mode="normal" in="SourceGraphic" in2="effect1_dropShadow_97_158" result="shape"/>
</filter>
<filter id="filter1_d_97_158" x="85.4061" y="0.95343" width="83.9165" height="97.0931" filterUnits="userSpaceOnUse" color-interpolation-filters="sRGB">
<feFlood flood-opacity="0" result="BackgroundImageFix"/>
<feColorMatrix in="SourceAlpha" type="matrix" values="0 0 0 0 0 0 0 0 0 0 0 0 0 0 0 0 0 0 127 0" result="hardAlpha"/>
<feOffset dy="4"/>
<feGaussianBlur stdDeviation="2"/>
<feComposite in2="hardAlpha" operator="out"/>
<feColorMatrix type="matrix" values="0 0 0 0 0 0 0 0 0 0 0 0 0 0 0 0 0 0 0.25 0"/>
<feBlend mode="normal" in2="BackgroundImageFix" result="effect1_dropShadow_97_158"/>
<feBlend mode="normal" in="SourceGraphic" in2="effect1_dropShadow_97_158" result="shape"/>
</filter>
<filter id="filter2_d_97_158" x="172.831" y="0.95343" width="78.8689" height="97.0931" filterUnits="userSpaceOnUse" color-interpolation-filters="sRGB">
<feFlood flood-opacity="0" result="BackgroundImageFix"/>
<feColorMatrix in="SourceAlpha" type="matrix" values="0 0 0 0 0 0 0 0 0 0 0 0 0 0 0 0 0 0 127 0" result="hardAlpha"/>
<feOffset dy="4"/>
<feGaussianBlur stdDeviation="2"/>
<feComposite in2="hardAlpha" operator="out"/>
<feColorMatrix type="matrix" values="0 0 0 0 0 0 0 0 0 0 0 0 0 0 0 0 0 0 0.25 0"/>
<feBlend mode="normal" in2="BackgroundImageFix" result="effect1_dropShadow_97_158"/>
<feBlend mode="normal" in="SourceGraphic" in2="effect1_dropShadow_97_158" result="shape"/>
</filter>
<filter id="filter3_d_97_158" x="265.203" y="0.847504" width="81.8975" height="97.1991" filterUnits="userSpaceOnUse" color-interpolation-filters="sRGB">
<feFlood flood-opacity="0" result="BackgroundImageFix"/>
<feColorMatrix in="SourceAlpha" type="matrix" values="0 0 0 0 0 0 0 0 0 0 0 0 0 0 0 0 0 0 127 0" result="hardAlpha"/>
<feOffset dy="4"/>
<feGaussianBlur stdDeviation="2"/>
<feComposite in2="hardAlpha" operator="out"/>
<feColorMatrix type="matrix" values="0 0 0 0 0 0 0 0 0 0 0 0 0 0 0 0 0 0 0.25 0"/>
<feBlend mode="normal" in2="BackgroundImageFix" result="effect1_dropShadow_97_158"/>
<feBlend mode="normal" in="SourceGraphic" in2="effect1_dropShadow_97_158" result="shape"/>
</filter>
<filter id="filter4_d_97_158" x="353.638" y="0" width="79.2727" height="98.8997" filterUnits="userSpaceOnUse" color-interpolation-filters="sRGB">
<feFlood flood-opacity="0" result="BackgroundImageFix"/>
<feColorMatrix in="SourceAlpha" type="matrix" values="0 0 0 0 0 0 0 0 0 0 0 0 0 0 0 0 0 0 127 0" result="hardAlpha"/>
<feOffset dy="4"/>
<feGaussianBlur stdDeviation="2"/>
<feComposite in2="hardAlpha" operator="out"/>
<feColorMatrix type="matrix" values="0 0 0 0 0 0 0 0 0 0 0 0 0 0 0 0 0 0 0.25 0"/>
<feBlend mode="normal" in2="BackgroundImageFix" result="effect1_dropShadow_97_158"/>
<feBlend mode="normal" in="SourceGraphic" in2="effect1_dropShadow_97_158" result="shape"/>
</filter>
<linearGradient id="paint0_linear_97_158" x1="1.5" y1="92.5" x2="76" y2="0.99999" gradientUnits="userSpaceOnUse">
<stop offset="0.2239" stop-color="#F4EFF4"/>
<stop offset="0.7017" stop-color="#DCEBF5"/>
<stop offset="1" stop-color="white"/>
</linearGradient>
<linearGradient id="paint1_linear_97_158" x1="94.2104" y1="68.9698" x2="159.019" y2="-4.63162" gradientUnits="userSpaceOnUse">
<stop offset="0.2239" stop-color="white"/>
<stop offset="0.5812" stop-color="#FBFDFD"/>
<stop offset="0.9258" stop-color="#F0F6F8"/>
<stop offset="1" stop-color="#ECF4F7"/>
</linearGradient>
<linearGradient id="paint2_linear_97_158" x1="171.948" y1="85.7637" x2="238.574" y2="10.0984" gradientUnits="userSpaceOnUse">
<stop offset="0.2239" stop-color="#E6F0F7"/>
<stop offset="0.849" stop-color="#EAF3F7"/>
<stop offset="1" stop-color="#ECF4F7"/>
</linearGradient>
<linearGradient id="paint3_linear_97_158" x1="269.971" y1="90.7235" x2="337.865" y2="13.6176" gradientUnits="userSpaceOnUse">
<stop offset="0.2239" stop-color="#F7F7F8"/>
<stop offset="0.6897" stop-color="#F3F6F8"/>
<stop offset="1" stop-color="#ECF4F7"/>
</linearGradient>
<linearGradient id="paint4_linear_97_158" x1="365.494" y1="80.2871" x2="424.317" y2="13.4836" gradientUnits="userSpaceOnUse">
<stop offset="0.2239" stop-color="white"/>
<stop offset="0.5812" stop-color="#FBFDFD"/>
<stop offset="0.9258" stop-color="#F0F6F8"/>
<stop offset="1" stop-color="#ECF4F7"/>
</linearGradient>
<linearGradient id="paint5_linear_97_158" x1="449.061" y1="30.3293" x2="442.425" y2="30.8604" gradientUnits="userSpaceOnUse">
<stop offset="0.3216" stop-color="#C8E1EE"/>
<stop offset="0.7332" stop-color="#DFEFF7"/>
<stop offset="1" stop-color="#E8F5FB"/>
</linearGradient>
<linearGradient id="paint6_linear_97_158" x1="391.733" y1="59.0502" x2="428.895" y2="22.003" gradientUnits="userSpaceOnUse">
<stop offset="0.3216" stop-color="#D2E5EF"/>
<stop offset="0.6484" stop-color="#DFEEF6"/>
<stop offset="1" stop-color="#E8F5FB"/>
</linearGradient>
<linearGradient id="paint7_linear_97_158" x1="168.66" y1="36.0879" x2="211.08" y2="70.5" gradientUnits="userSpaceOnUse">
<stop offset="0.3216" stop-color="#CCE4F1"/>
<stop offset="0.7056" stop-color="#DFEFF8"/>
<stop offset="1" stop-color="#E8F5FB"/>
</linearGradient>
<linearGradient id="paint8_linear_97_158" x1="85.896" y1="79.3677" x2="150.704" y2="5.76632" gradientUnits="userSpaceOnUse">
<stop offset="0.2239" stop-color="#EDF7FB"/>
<stop offset="0.6442" stop-color="#DCEEF7"/>
<stop offset="1" stop-color="#D3E9F5"/>
</linearGradient>
<linearGradient id="paint9_linear_97_158" x1="226.137" y1="32.7357" x2="237.683" y2="32.7357" gradientUnits="userSpaceOnUse">
<stop offset="0.3216" stop-color="#C8E1EE"/>
<stop offset="0.7332" stop-color="#DFEFF7"/>
<stop offset="1" stop-color="#E8F5FB"/>
</linearGradient>
<linearGradient id="paint10_linear_97_158" x1="131.19" y1="85.3225" x2="142.559" y2="72.4114" gradientUnits="userSpaceOnUse">
<stop offset="0.3998" stop-color="#D7EDF4"/>
<stop offset="0.6235" stop-color="#DFF1F7"/>
<stop offset="1" stop-color="#E8F5FB"/>
</linearGradient>
<linearGradient id="paint11_linear_97_158" x1="136.568" y1="40.1315" x2="166.312" y2="40.1315" gradientUnits="userSpaceOnUse">
<stop offset="0.3998" stop-color="#C5E6F3"/>
<stop offset="0.418" stop-color="#C6E7F3"/>
<stop offset="0.7791" stop-color="#DFF1F9"/>
<stop offset="1" stop-color="#E8F5FB"/>
</linearGradient>
<linearGradient id="paint12_linear_97_158" x1="4.17909" y1="90.5834" x2="79.7847" y2="4.71949" gradientUnits="userSpaceOnUse">
<stop offset="0.2239" stop-color="#DDF1FA"/>
<stop offset="0.447917" stop-color="#DCF0FA"/>
<stop offset="1" stop-color="white"/>
</linearGradient>
<linearGradient id="paint13_linear_97_158" x1="65.2487" y1="53.2854" x2="96.146" y2="28.5793" gradientUnits="userSpaceOnUse">
<stop offset="0.3216" stop-color="#C8E1EE"/>
<stop offset="0.7332" stop-color="#DFEFF7"/>
<stop offset="1" stop-color="#E8F5FB"/>
</linearGradient>
<linearGradient id="paint14_linear_97_158" x1="50.8253" y1="40.4995" x2="62.3714" y2="40.4995" gradientUnits="userSpaceOnUse">
<stop offset="0.3216" stop-color="#C8E1EE"/>
<stop offset="0.7332" stop-color="#DFEFF7"/>
<stop offset="1" stop-color="#E8F5FB"/>
</linearGradient>
<linearGradient id="paint15_linear_97_158" x1="-14.5862" y1="73.7521" x2="34.6766" y2="17.8052" gradientUnits="userSpaceOnUse">
<stop offset="0.3467" stop-color="#BDDDEE"/>
<stop offset="0.5749" stop-color="#CDE6F3"/>
<stop offset="1" stop-color="#E6F4FC"/>
</linearGradient>
<linearGradient id="paint16_linear_97_158" x1="-4.0523" y1="80.3249" x2="45.6361" y2="40.593" gradientUnits="userSpaceOnUse">
<stop offset="0.3216" stop-color="#D0E5F0"/>
<stop offset="0.67" stop-color="#DFEFF7"/>
<stop offset="1" stop-color="#E8F5FB"/>
</linearGradient>
</defs>
</svg>
