<svg width="19" height="23" viewBox="0 0 19 23" fill="none" xmlns="http://www.w3.org/2000/svg">
<path d="M9.56001 0.25C3.32391 5.36875 0.200012 9.79 0.200012 13.525C0.200012 19.1275 4.64601 22.75 9.56001 22.75C14.474 22.75 18.92 19.1275 18.92 13.525C18.92 9.79 15.7961 5.36875 9.56001 0.25ZM9.56001 20.5C5.64051 20.5 2.54001 17.6087 2.54001 13.525C2.54001 10.8925 4.82151 7.405 9.56001 3.2425C14.2985 7.405 16.58 10.8813 16.58 13.525C16.58 17.6087 13.4795 20.5 9.56001 20.5ZM4.68111 13.75C5.11401 13.75 5.46501 14.0425 5.54691 14.4475C6.02661 16.945 8.21451 17.8 9.80571 17.6763C10.3088 17.6537 10.73 18.0362 10.73 18.52C10.73 18.97 10.3556 19.3412 9.88761 19.3638C7.39551 19.51 4.48221 18.1375 3.81531 14.7288C3.79498 14.6081 3.80214 14.4847 3.83628 14.367C3.87043 14.2493 3.93076 14.1402 4.01309 14.0471C4.09543 13.954 4.19781 13.8792 4.31314 13.8279C4.42848 13.7766 4.55403 13.7501 4.68111 13.75Z" fill="#F8F8F8"/>
</svg>
