<svg width="26" height="24" viewBox="0 0 26 24" fill="none" xmlns="http://www.w3.org/2000/svg">
<path d="M11.56 15C11.1462 15 10.7495 14.842 10.4569 14.5607C10.1643 14.2794 9.99998 13.8978 9.99998 13.5V4.6245C7.69108 5.00662 5.61505 6.20716 4.18172 7.98913C2.74839 9.77111 2.06193 12.005 2.25784 14.2499C2.45375 16.4947 3.5178 18.5874 5.23993 20.1148C6.96207 21.6421 9.21714 22.4932 11.56 22.5C13.772 22.4997 15.9125 21.7464 17.6021 20.3736C19.2917 19.0008 20.4212 17.0971 20.7905 15H11.56ZM10.0047 3.105C10.858 2.988 11.56 3.672 11.56 4.5V13.5H20.92C21.7811 13.5 22.4925 14.175 22.3708 14.9955C21.9711 17.6186 20.5545 19.9993 18.4053 21.6599C16.2561 23.3205 13.5334 24.1383 10.7833 23.949C8.03319 23.7597 5.45926 22.5775 3.57795 20.6395C1.69664 18.7015 0.647124 16.1511 0.639984 13.5C0.640122 10.9742 1.58692 8.53295 3.30685 6.62378C5.02679 4.71462 7.40466 3.46538 10.0047 3.105Z" fill="#F8F8F8"/>
<path d="M14.68 10.5V1.49999C17.1624 1.49999 19.5432 2.44821 21.2985 4.13603C23.0539 5.82386 24.04 8.11305 24.04 10.5H14.68ZM24.1367 12C24.9136 12 25.5828 11.451 25.5984 10.704L25.6 10.5C25.6001 9.10391 25.3106 7.72182 24.7485 6.4346C24.1864 5.14737 23.363 3.98085 22.3264 3.00328C21.2898 2.02571 20.0609 1.25672 18.7116 0.741299C17.3622 0.225876 15.9195 -0.0256302 14.4678 0.00149376C13.691 0.0164938 13.12 0.661494 13.12 1.40699V10.5C13.12 10.8978 13.2844 11.2793 13.5769 11.5607C13.8695 11.842 14.2663 12 14.68 12H24.1367Z" fill="#F8F8F8"/>
</svg>
