<svg width="18" height="18" viewBox="0 0 18 18" fill="none" xmlns="http://www.w3.org/2000/svg">
<g clip-path="url(#clip0_27_112)">
<path d="M10.1531 9C10.1531 11.7956 7.88063 14.0625 5.076 14.0625C4.4103 14.0634 3.75094 13.9331 3.13557 13.6792C2.5202 13.4253 1.96087 13.0526 1.48952 12.5825C1.01817 12.1124 0.644028 11.5541 0.388456 10.9394C0.132883 10.3247 0.000885833 9.6657 0 9C0 6.20325 2.2725 3.9375 5.076 3.9375C5.7418 3.93646 6.40128 4.0666 7.01678 4.32046C7.63228 4.57433 8.19174 4.94696 8.66321 5.41707C9.13468 5.88719 9.50892 6.44557 9.76456 7.06033C10.0202 7.6751 10.1522 8.3342 10.1531 9ZM15.7219 9C15.7219 11.6325 14.5856 13.7655 13.1839 13.7655C11.7821 13.7655 10.6459 11.6314 10.6459 9C10.6459 6.3675 11.7821 4.2345 13.1839 4.2345C14.5856 4.2345 15.7219 6.36862 15.7219 9ZM18 9C18 11.358 17.6006 13.2694 17.1068 13.2694C16.614 13.2694 16.2146 11.3569 16.2146 9C16.2146 6.642 16.614 4.73062 17.1079 4.73062C17.6006 4.73062 18 6.642 18 9Z" fill="#F8F8F8"/>
</g>
<defs>
<clipPath id="clip0_27_112">
<rect width="18" height="18" fill="white"/>
</clipPath>
</defs>
</svg>
