<svg width="14" height="23" viewBox="0 0 14 23" fill="none" xmlns="http://www.w3.org/2000/svg">
<path d="M13.114 15.2078L13.115 15.296C13.1166 16.5171 12.6402 17.6942 11.7801 18.594L11.7831 18.5902C10.8873 19.5374 9.67572 20.1556 8.35664 20.3384L8.32569 20.3422V22.6042C8.32569 22.7091 8.28225 22.8098 8.20492 22.8841C8.12759 22.9583 8.02272 23 7.91336 23H7.89638H7.89738H6.09328C5.98008 22.9988 5.87189 22.955 5.79185 22.8782C5.7118 22.8014 5.66626 22.6975 5.66496 22.5888V20.3422C5.06332 20.2651 4.47215 20.1256 3.90179 19.9262L3.9607 19.9445C3.10874 19.6709 2.30937 19.2648 1.5945 18.7426L1.61447 18.7569C1.39611 18.6053 1.18648 18.4425 0.986473 18.2691L0.993462 18.2748C0.882307 18.1726 0.804432 18.0959 0.759837 18.0448C0.687657 17.9759 0.645041 17.8835 0.640419 17.7859C0.635797 17.6883 0.669506 17.5926 0.734877 17.5176L0.733879 17.5186L2.11067 15.7857C2.14725 15.7405 2.19357 15.7034 2.24647 15.6769C2.29937 15.6504 2.3576 15.6352 2.41718 15.6324H2.41818C2.47738 15.6219 2.53843 15.6272 2.59474 15.6477C2.65104 15.6681 2.70046 15.7029 2.73766 15.7483L2.73866 15.7493L2.76462 15.7742C3.66733 16.5677 4.77213 17.1185 5.96748 17.371L6.01341 17.3796C6.31093 17.4448 6.65238 17.4822 7.00282 17.4822L7.06472 17.4831C7.75461 17.4831 8.39358 17.2761 8.91974 16.9234L8.90876 16.9301C9.17414 16.7579 9.3891 16.5232 9.53313 16.2486C9.67715 15.9739 9.74543 15.6684 9.73144 15.3611V15.365C9.73144 15.1129 9.65656 14.8781 9.52776 14.6797L9.53076 14.6854C9.40905 14.4875 9.2588 14.3071 9.08448 14.1496L9.08348 14.1487C8.8514 13.9618 8.59621 13.8031 8.3237 13.6762L8.30173 13.6666C7.94497 13.4915 7.65211 13.3544 7.42314 13.2554C7.19418 13.1564 6.83775 13.0174 6.35386 12.8385C6.00642 12.7017 5.73219 12.5947 5.53118 12.5174C5.33017 12.4401 5.05594 12.3267 4.7085 12.1771C4.36106 12.0276 4.0825 11.895 3.87284 11.7794C3.66318 11.6637 3.41125 11.512 3.11705 11.3241C2.85933 11.1647 2.61826 10.9818 2.39721 10.7778L2.39821 10.7788C2.19759 10.5839 2.00764 10.3791 1.82912 10.1654L1.81614 10.15C1.62707 9.93 1.47021 9.68622 1.34989 9.42543L1.3419 9.4053C1.22594 9.14058 1.13408 8.86672 1.06734 8.58678L1.06035 8.55228C0.98397 8.23094 0.945787 7.90233 0.946537 7.57274V7.54974V7.52098C0.946537 6.32292 1.44673 5.23603 2.25843 4.44435L2.25743 4.44531C3.16219 3.54233 4.34451 2.9414 5.63102 2.73063L5.66696 2.72584V0.411176V0.407343C5.66696 0.295204 5.71588 0.193608 5.79376 0.121724C5.83225 0.0832326 5.87844 0.0526082 5.92957 0.0316904C5.9807 0.0107727 6.0357 -6.71648e-06 6.09128 3.13971e-09H7.91535C8.14299 3.13971e-09 8.32769 0.177314 8.32769 0.395841V0.412135V0.411176V2.67025C8.87681 2.72584 9.378 2.83031 9.85823 2.97983L9.80532 2.96545C10.2636 3.09964 10.649 3.24628 11.0194 3.41689L10.9675 3.3958C11.2949 3.55203 11.5735 3.71209 11.8371 3.89036L11.8171 3.87694C12.0833 4.05713 12.2571 4.18109 12.3383 4.24882C12.4195 4.31655 12.4863 4.3763 12.5389 4.42805C12.6107 4.4874 12.6572 4.57013 12.6694 4.66035C12.6815 4.75057 12.6585 4.84192 12.6048 4.91686L12.6058 4.91591L11.5256 6.79064C11.4986 6.84827 11.4558 6.89778 11.4019 6.9339C11.3479 6.97003 11.2847 6.9914 11.219 6.99575H11.2181C11.1546 7.00841 11.0891 7.00686 11.0264 6.99124C10.9637 6.97561 10.9056 6.94633 10.8566 6.90566H10.8576C10.831 6.8801 10.7664 6.82898 10.6639 6.7523C10.5614 6.67563 10.3877 6.56221 10.1428 6.41205C9.90513 6.26581 9.65802 6.13424 9.40296 6.01813L9.36103 6.00088C9.05371 5.86522 8.73426 5.75647 8.40656 5.67596L8.36463 5.66733C7.99245 5.56953 7.60833 5.51989 7.22246 5.51973H7.22147C6.48208 5.48722 5.75134 5.68343 5.13681 6.07947L5.14979 6.0718C4.8099 6.28861 4.55693 6.60996 4.43247 6.98305C4.308 7.35614 4.31943 7.75878 4.46489 8.12481L4.4609 8.11331C4.55275 8.32417 4.68653 8.50244 4.85427 8.64525L4.85626 8.64621C5.017 8.79093 5.18873 8.92991 5.36844 9.0593L5.38442 9.06984C5.59907 9.21169 5.84567 9.34492 6.10426 9.4561L6.13421 9.4676C6.46834 9.61712 6.73791 9.73277 6.94291 9.81456C7.14792 9.89635 7.46008 10.0139 7.87941 10.1673C8.35198 10.3385 8.71307 10.4733 8.96267 10.5717C9.21227 10.6701 9.55106 10.82 9.97904 11.0213C10.3395 11.1838 10.6869 11.3718 11.0184 11.5839L10.9894 11.5666C11.2989 11.7775 11.5685 11.9883 11.8251 12.2136L11.8191 12.2078C12.0956 12.4398 12.3313 12.7081 12.519 13.0081L12.5279 13.0235C12.6937 13.3043 12.8365 13.6311 12.9403 13.9733L12.9493 14.0059C13.0581 14.3557 13.12 14.7583 13.12 15.1742V15.2145V15.2126L13.114 15.2078Z" fill="#F8F8F8"/>
</svg>
