<svg width="25" height="25" viewBox="0 0 25 25" fill="none" xmlns="http://www.w3.org/2000/svg">
<path d="M11.5354 2.74269C11.8687 1.86352 13.1302 1.86352 13.4646 2.74269L15.6208 8.7156C15.7719 9.11144 16.1562 9.37498 16.5854 9.37498H21.8844C22.8635 9.37498 23.2906 10.5937 22.5208 11.1906L18.75 14.5833C18.5811 14.7132 18.4576 14.8932 18.3974 15.0975C18.3371 15.3019 18.3431 15.5201 18.4146 15.7208L19.7917 21.5573C20.1271 22.4948 19.0417 23.3 18.2208 22.7229L13.0989 19.4729C12.9235 19.3496 12.7144 19.2835 12.5 19.2835C12.2856 19.2835 12.0764 19.3496 11.901 19.4729L6.77915 22.7229C5.95936 23.3 4.8729 22.4937 5.20832 21.5573L6.5854 15.7208C6.65684 15.5201 6.66286 15.3019 6.6026 15.0975C6.54234 14.8932 6.4189 14.7132 6.24999 14.5833L2.47915 11.1906C1.70832 10.5937 2.13749 9.37498 3.11457 9.37498H8.41353C8.62217 9.37567 8.8261 9.313 8.99834 9.19526C9.17058 9.07752 9.30301 8.91026 9.37811 8.7156L11.5344 2.74269H11.5354Z" stroke="#F8F8F8" stroke-width="2" stroke-linecap="round" stroke-linejoin="round"/>
</svg>
