<svg width="369" height="369" viewBox="0 0 369 369" fill="none" xmlns="http://www.w3.org/2000/svg">
<path d="M303.5 111.5C306.607 111.5 309.125 108.982 309.125 105.875C309.125 102.768 306.607 100.25 303.5 100.25C300.393 100.25 297.875 102.768 297.875 105.875C297.875 108.982 300.393 111.5 303.5 111.5Z" stroke="#F8F8F8" stroke-width="2"/>
<path d="M309.125 113.75H309.521C310.343 113.75 311.138 114.051 311.754 114.595C312.371 115.14 312.767 115.89 312.869 116.707L313.309 120.221C313.348 120.538 313.32 120.859 313.226 121.164C313.132 121.469 312.974 121.75 312.763 121.989C312.552 122.228 312.292 122.42 312.001 122.551C311.71 122.682 311.395 122.75 311.076 122.75H295.924C295.605 122.75 295.29 122.682 294.999 122.551C294.708 122.42 294.448 122.228 294.237 121.989C294.026 121.75 293.868 121.469 293.774 121.164C293.68 120.859 293.652 120.538 293.691 120.221L294.13 116.707C294.232 115.89 294.629 115.139 295.246 114.594C295.863 114.05 296.657 113.75 297.48 113.75H297.875" stroke="#F8F8F8" stroke-width="2" stroke-linecap="round" stroke-linejoin="round"/>
<path d="M67.5 111.5C70.6066 111.5 73.125 108.982 73.125 105.875C73.125 102.768 70.6066 100.25 67.5 100.25C64.3934 100.25 61.875 102.768 61.875 105.875C61.875 108.982 64.3934 111.5 67.5 111.5Z" stroke="#F8F8F8" stroke-width="2"/>
<path d="M73.125 113.75H73.521C74.3435 113.75 75.1375 114.051 75.754 114.595C76.3705 115.14 76.767 115.89 76.869 116.707L77.3089 120.221C77.3484 120.538 77.3202 120.859 77.2261 121.164C77.1319 121.469 76.974 121.75 76.7628 121.989C76.5516 122.228 76.292 122.42 76.0011 122.551C75.7102 122.682 75.3948 122.75 75.0757 122.75H59.9242C59.6052 122.75 59.2897 122.682 58.9989 122.551C58.708 122.42 58.4484 122.228 58.2372 121.989C58.026 121.75 57.8681 121.469 57.7739 121.164C57.6798 120.859 57.6516 120.538 57.6911 120.221L58.1299 116.707C58.2319 115.89 58.6287 115.139 59.2457 114.594C59.8626 114.05 60.6573 113.75 61.4801 113.75H61.875" stroke="#F8F8F8" stroke-width="2" stroke-linecap="round" stroke-linejoin="round"/>
<path d="M90.3864 209.193C92.1018 209.193 93.4924 207.716 93.4924 205.893C93.4924 204.07 92.1018 202.593 90.3864 202.593C88.6709 202.593 87.2803 204.07 87.2803 205.893C87.2803 207.716 88.6709 209.193 90.3864 209.193Z" stroke="#F8F8F8"/>
<path d="M93.4924 210.513H93.7111C94.1653 210.513 94.6037 210.69 94.9442 211.009C95.2846 211.328 95.5035 211.769 95.5598 212.248L95.8027 214.31C95.8246 214.495 95.809 214.684 95.757 214.863C95.705 215.042 95.6178 215.207 95.5012 215.347C95.3846 215.487 95.2412 215.6 95.0806 215.677C94.92 215.754 94.7458 215.794 94.5696 215.793H86.2031C86.0269 215.794 85.8528 215.754 85.6921 215.677C85.5315 215.6 85.3882 215.487 85.2715 215.347C85.1549 215.207 85.0677 215.042 85.0157 214.863C84.9638 214.684 84.9482 214.495 84.97 214.31L85.2123 212.248C85.2686 211.769 85.4878 211.328 85.8284 211.009C86.1691 210.689 86.6079 210.513 87.0623 210.513H87.2803" stroke="#F8F8F8" stroke-linecap="round" stroke-linejoin="round"/>
<path d="M277.682 207.795C279.397 207.795 280.788 206.405 280.788 204.689C280.788 202.974 279.397 201.583 277.682 201.583C275.966 201.583 274.576 202.974 274.576 204.689C274.576 206.405 275.966 207.795 277.682 207.795Z" stroke="#F8F8F8"/>
<path d="M280.788 209.038H281.007C281.461 209.038 281.899 209.204 282.24 209.505C282.58 209.805 282.799 210.22 282.855 210.671L283.098 212.611C283.12 212.786 283.104 212.963 283.052 213.132C283 213.3 282.913 213.456 282.797 213.588C282.68 213.72 282.537 213.825 282.376 213.898C282.215 213.97 282.041 214.008 281.865 214.008H273.499C273.322 214.008 273.148 213.97 272.988 213.898C272.827 213.825 272.684 213.72 272.567 213.588C272.45 213.456 272.363 213.3 272.311 213.132C272.259 212.963 272.244 212.786 272.265 212.611L272.508 210.671C272.564 210.22 272.783 209.805 273.124 209.504C273.465 209.204 273.903 209.038 274.358 209.038H274.576" stroke="#F8F8F8" stroke-linecap="round" stroke-linejoin="round"/>
<path d="M90.3864 229.693C92.1018 229.693 93.4924 228.216 93.4924 226.393C93.4924 224.57 92.1018 223.093 90.3864 223.093C88.6709 223.093 87.2803 224.57 87.2803 226.393C87.2803 228.216 88.6709 229.693 90.3864 229.693Z" stroke="#F8F8F8"/>
<path d="M93.4924 231.013H93.7111C94.1653 231.013 94.6037 231.19 94.9442 231.509C95.2846 231.828 95.5035 232.269 95.5598 232.748L95.8027 234.81C95.8246 234.995 95.809 235.184 95.757 235.363C95.705 235.542 95.6178 235.707 95.5012 235.847C95.3846 235.987 95.2412 236.1 95.0806 236.177C94.92 236.254 94.7458 236.294 94.5696 236.293H86.2031C86.0269 236.294 85.8528 236.254 85.6921 236.177C85.5315 236.1 85.3882 235.987 85.2715 235.847C85.1549 235.707 85.0677 235.542 85.0157 235.363C84.9638 235.184 84.9482 234.995 84.97 234.81L85.2123 232.748C85.2686 232.269 85.4878 231.828 85.8284 231.509C86.1691 231.189 86.6079 231.013 87.0623 231.013H87.2803" stroke="#F8F8F8" stroke-linecap="round" stroke-linejoin="round"/>
<g clip-path="url(#clip0_26_146)">
<path d="M277.682 228.295C279.397 228.295 280.788 226.905 280.788 225.189C280.788 223.474 279.397 222.083 277.682 222.083C275.966 222.083 274.576 223.474 274.576 225.189C274.576 226.905 275.966 228.295 277.682 228.295Z" stroke="#F8F8F8"/>
<path d="M280.788 229.538H281.007C281.461 229.538 281.899 229.704 282.24 230.005C282.58 230.305 282.799 230.72 282.855 231.171L283.098 233.111C283.12 233.286 283.104 233.463 283.052 233.632C283 233.8 282.913 233.956 282.797 234.088C282.68 234.22 282.537 234.325 282.376 234.398C282.215 234.47 282.041 234.508 281.865 234.508H273.499C273.322 234.508 273.148 234.47 272.988 234.398C272.827 234.325 272.684 234.22 272.567 234.088C272.45 233.956 272.363 233.8 272.311 233.632C272.259 233.463 272.244 233.286 272.265 233.111L272.508 231.171C272.564 230.72 272.783 230.305 273.124 230.004C273.465 229.704 273.903 229.538 274.358 229.538H274.576" stroke="#F8F8F8" stroke-linecap="round" stroke-linejoin="round"/>
</g>
<path d="M90.3864 249.727C92.1018 249.727 93.4924 248.337 93.4924 246.621C93.4924 244.906 92.1018 243.515 90.3864 243.515C88.6709 243.515 87.2803 244.906 87.2803 246.621C87.2803 248.337 88.6709 249.727 90.3864 249.727Z" stroke="#F8F8F8"/>
<path d="M93.4924 250.97H93.7111C94.1653 250.97 94.6037 251.136 94.9442 251.436C95.2846 251.737 95.5035 252.152 95.5598 252.602L95.8027 254.543C95.8246 254.718 95.809 254.895 95.757 255.064C95.705 255.232 95.6178 255.387 95.5012 255.519C95.3846 255.651 95.2412 255.757 95.0806 255.83C94.92 255.902 94.7458 255.939 94.5696 255.939H86.2031C86.0269 255.939 85.8528 255.902 85.6921 255.83C85.5315 255.757 85.3882 255.651 85.2715 255.519C85.1549 255.387 85.0677 255.232 85.0157 255.064C84.9638 254.895 84.9482 254.718 84.97 254.543L85.2123 252.602C85.2686 252.151 85.4878 251.737 85.8284 251.436C86.1691 251.135 86.6079 250.97 87.0623 250.97H87.2803" stroke="#F8F8F8" stroke-linecap="round" stroke-linejoin="round"/>
<path d="M277.682 248.795C279.397 248.795 280.788 247.405 280.788 245.689C280.788 243.974 279.397 242.583 277.682 242.583C275.966 242.583 274.576 243.974 274.576 245.689C274.576 247.405 275.966 248.795 277.682 248.795Z" stroke="#F8F8F8"/>
<path d="M280.788 250.038H281.007C281.461 250.038 281.899 250.204 282.24 250.505C282.58 250.805 282.799 251.22 282.855 251.67L283.098 253.611C283.12 253.786 283.104 253.963 283.052 254.132C283 254.3 282.913 254.455 282.797 254.587C282.68 254.72 282.537 254.825 282.376 254.898C282.215 254.97 282.041 255.008 281.865 255.008H273.499C273.322 255.008 273.148 254.97 272.988 254.898C272.827 254.825 272.684 254.72 272.567 254.587C272.45 254.455 272.363 254.3 272.311 254.132C272.259 253.963 272.244 253.786 272.265 253.611L272.508 251.67C272.564 251.22 272.783 250.805 273.124 250.504C273.465 250.203 273.903 250.038 274.358 250.038H274.576" stroke="#F8F8F8" stroke-linecap="round" stroke-linejoin="round"/>
<path d="M101.677 81.3636V67.1449H106.657C108.382 67.1449 109.691 67.4769 110.583 68.141C111.475 68.7985 111.921 69.7653 111.921 71.0414C111.921 71.738 111.742 72.3532 111.384 72.8871C111.026 73.4144 110.528 73.8018 109.89 74.0492C110.619 74.2315 111.192 74.5993 111.608 75.1527C112.031 75.7061 112.243 76.3832 112.243 77.184C112.243 78.5511 111.807 79.5863 110.934 80.2894C110.062 80.9926 108.819 81.3506 107.204 81.3636H101.677ZM104.606 75.1722V79.0101H107.116C107.806 79.0101 108.343 78.8474 108.727 78.5219C109.118 78.1898 109.313 77.7341 109.313 77.1547C109.313 75.8526 108.64 75.1918 107.292 75.1722H104.606ZM104.606 73.1019H106.774C108.252 73.0759 108.991 72.4867 108.991 71.3344C108.991 70.6898 108.802 70.2276 108.425 69.9476C108.054 69.6612 107.464 69.5179 106.657 69.5179H104.606V73.1019ZM120.593 80.2894C119.896 81.1358 118.933 81.559 117.702 81.559C116.569 81.559 115.703 81.2334 115.104 80.5824C114.512 79.9314 114.209 78.9776 114.196 77.7211V70.7972H117.018V77.6234C117.018 78.7237 117.52 79.2738 118.522 79.2738C119.479 79.2738 120.137 78.9418 120.495 78.2777V70.7972H123.327V81.3636H120.671L120.593 80.2894ZM129.401 77.3695L131.354 70.7972H134.382L130.134 83.0043L129.899 83.5609C129.268 84.9411 128.226 85.6312 126.774 85.6312C126.364 85.6312 125.947 85.5694 125.524 85.4457V83.307L125.954 83.3168C126.488 83.3168 126.885 83.2354 127.145 83.0726C127.412 82.9099 127.621 82.6397 127.77 82.2621L128.102 81.3929L124.401 70.7972H127.438L129.401 77.3695Z" fill="white"/>
<path d="M81.5565 274.841H79.5057V270.575H75.5067V274.841H73.4559V264.888H75.5067V268.921H79.5057V264.888H81.5565V274.841ZM85.9862 272.045L87.3533 267.444H89.4725L86.4988 275.989L86.3348 276.379C85.8927 277.345 85.1636 277.828 84.1473 277.828C83.8602 277.828 83.5685 277.785 83.2723 277.698V276.201L83.5731 276.208C83.9468 276.208 84.2248 276.151 84.4071 276.037C84.5939 275.923 84.7397 275.734 84.8446 275.47L85.077 274.861L82.4862 267.444H84.6121L85.9862 272.045ZM89.8485 271.088C89.8485 269.935 90.1059 269.017 90.6209 268.333C91.1404 267.649 91.8491 267.308 92.7469 267.308C93.4669 267.308 94.0617 267.576 94.5311 268.114V264.341H96.5135V274.841H94.7293L94.6336 274.055C94.1414 274.67 93.508 274.978 92.7332 274.978C91.8628 274.978 91.1632 274.636 90.6346 273.952C90.1105 273.264 89.8485 272.309 89.8485 271.088ZM91.824 271.231C91.824 271.924 91.9448 272.455 92.1863 272.824C92.4279 273.193 92.7788 273.378 93.2391 273.378C93.8498 273.378 94.2804 273.12 94.5311 272.605V269.687C94.285 269.172 93.8589 268.914 93.2528 268.914C92.3003 268.914 91.824 269.687 91.824 271.231ZM102.201 269.297C101.932 269.26 101.695 269.242 101.49 269.242C100.743 269.242 100.253 269.495 100.02 270.001V274.841H98.0447V267.444H99.911L99.9656 268.326C100.362 267.647 100.911 267.308 101.613 267.308C101.832 267.308 102.037 267.337 102.228 267.396L102.201 269.297ZM102.604 271.074C102.604 270.34 102.746 269.687 103.028 269.112C103.311 268.538 103.716 268.094 104.245 267.779C104.778 267.465 105.396 267.308 106.097 267.308C107.096 267.308 107.909 267.613 108.538 268.224C109.171 268.834 109.525 269.664 109.597 270.712L109.611 271.218C109.611 272.353 109.294 273.264 108.661 273.952C108.027 274.636 107.178 274.978 106.111 274.978C105.045 274.978 104.193 274.636 103.555 273.952C102.921 273.269 102.604 272.339 102.604 271.163V271.074ZM104.58 271.218C104.58 271.92 104.712 272.457 104.976 272.831C105.241 273.2 105.619 273.385 106.111 273.385C106.59 273.385 106.963 273.202 107.232 272.838C107.501 272.469 107.636 271.881 107.636 271.074C107.636 270.386 107.501 269.853 107.232 269.475C106.963 269.096 106.585 268.907 106.097 268.907C105.614 268.907 105.241 269.096 104.976 269.475C104.712 269.848 104.58 270.429 104.58 271.218ZM75.6502 290.841H73.5994V286.575H69.6004V290.841H67.5496V280.888H69.6004V284.921H73.5994V280.888H75.6502V290.841ZM77.0106 287.074C77.0106 286.34 77.1518 285.687 77.4344 285.112C77.7169 284.538 78.1225 284.094 78.6512 283.779C79.1844 283.465 79.8019 283.308 80.5037 283.308C81.5018 283.308 82.3153 283.613 82.9442 284.224C83.5776 284.834 83.9308 285.664 84.0037 286.712L84.0174 287.218C84.0174 288.353 83.7007 289.264 83.0672 289.952C82.4337 290.636 81.5838 290.978 80.5174 290.978C79.451 290.978 78.5988 290.636 77.9608 289.952C77.3273 289.269 77.0106 288.339 77.0106 287.163V287.074ZM78.9862 287.218C78.9862 287.92 79.1183 288.457 79.3826 288.831C79.647 289.2 80.0252 289.385 80.5174 289.385C80.9959 289.385 81.3696 289.202 81.6385 288.838C81.9074 288.469 82.0418 287.881 82.0418 287.074C82.0418 286.386 81.9074 285.853 81.6385 285.475C81.3696 285.096 80.9914 284.907 80.5037 284.907C80.0207 284.907 79.647 285.096 79.3826 285.475C79.1183 285.848 78.9862 286.429 78.9862 287.218ZM87.3192 290.841H85.3367V280.341H87.3192V290.841ZM88.6453 287.088C88.6453 285.935 88.9028 285.017 89.4178 284.333C89.9373 283.649 90.646 283.308 91.5438 283.308C92.2638 283.308 92.8585 283.576 93.3279 284.114V280.341H95.3104V290.841H93.5262L93.4305 290.055C92.9383 290.67 92.3048 290.978 91.5301 290.978C90.6597 290.978 89.9601 290.636 89.4315 289.952C88.9074 289.264 88.6453 288.309 88.6453 287.088ZM90.6209 287.231C90.6209 287.924 90.7417 288.455 90.9832 288.824C91.2248 289.193 91.5757 289.378 92.036 289.378C92.6466 289.378 93.0773 289.12 93.3279 288.605V285.687C93.0819 285.172 92.6557 284.914 92.0496 284.914C91.0972 284.914 90.6209 285.687 90.6209 287.231ZM100.246 290.978C99.1613 290.978 98.2772 290.645 97.5936 289.979C96.9145 289.314 96.575 288.428 96.575 287.32V287.129C96.575 286.386 96.7186 285.723 97.0057 285.14C97.2928 284.552 97.6984 284.101 98.2225 283.786C98.7511 283.467 99.3527 283.308 100.027 283.308C101.039 283.308 101.834 283.627 102.413 284.265C102.996 284.903 103.288 285.807 103.288 286.979V287.785H98.5779C98.6418 288.268 98.8332 288.656 99.1522 288.947C99.4757 289.239 99.8836 289.385 100.376 289.385C101.137 289.385 101.732 289.109 102.16 288.558L103.131 289.645C102.834 290.064 102.433 290.392 101.928 290.629C101.422 290.861 100.861 290.978 100.246 290.978ZM100.02 284.907C99.6284 284.907 99.3094 285.039 99.0633 285.304C98.8218 285.568 98.6668 285.946 98.5985 286.438H101.347V286.281C101.337 285.844 101.219 285.507 100.991 285.27C100.763 285.028 100.44 284.907 100.02 284.907ZM108.572 285.297C108.303 285.26 108.066 285.242 107.861 285.242C107.114 285.242 106.624 285.495 106.391 286.001V290.841H104.416V283.444H106.282L106.337 284.326C106.733 283.647 107.282 283.308 107.984 283.308C108.203 283.308 108.408 283.337 108.599 283.396L108.572 285.297ZM113.535 288.797C113.535 288.555 113.414 288.366 113.173 288.229C112.936 288.088 112.553 287.963 112.024 287.854C110.265 287.484 109.386 286.737 109.386 285.611C109.386 284.955 109.657 284.408 110.199 283.971C110.746 283.529 111.459 283.308 112.339 283.308C113.277 283.308 114.027 283.529 114.588 283.971C115.153 284.413 115.435 284.987 115.435 285.693H113.46C113.46 285.411 113.369 285.178 113.186 284.996C113.004 284.809 112.719 284.716 112.332 284.716C111.999 284.716 111.742 284.791 111.559 284.941C111.377 285.092 111.286 285.283 111.286 285.516C111.286 285.734 111.388 285.912 111.594 286.049C111.803 286.181 112.154 286.297 112.646 286.397C113.138 286.493 113.553 286.603 113.89 286.726C114.934 287.108 115.456 287.771 115.456 288.715C115.456 289.389 115.166 289.936 114.588 290.355C114.009 290.77 113.262 290.978 112.346 290.978C111.726 290.978 111.174 290.868 110.691 290.649C110.213 290.426 109.837 290.123 109.563 289.74C109.29 289.353 109.153 288.936 109.153 288.489H111.026C111.044 288.84 111.174 289.109 111.416 289.296C111.657 289.483 111.981 289.576 112.387 289.576C112.765 289.576 113.05 289.506 113.241 289.364C113.437 289.218 113.535 289.029 113.535 288.797Z" fill="white"/>
<path d="M268.386 274.841H266.335V270.575H262.336V274.841H260.285V264.888H262.336V268.921H266.335V264.888H268.386V274.841ZM272.816 272.045L274.183 267.444H276.302L273.328 275.989L273.164 276.379C272.722 277.345 271.993 277.828 270.977 277.828C270.69 277.828 270.398 277.785 270.102 277.698V276.201L270.403 276.208C270.776 276.208 271.054 276.151 271.237 276.037C271.423 275.923 271.569 275.734 271.674 275.47L271.907 274.861L269.316 267.444H271.442L272.816 272.045ZM276.678 271.088C276.678 269.935 276.935 269.017 277.45 268.333C277.97 267.649 278.679 267.308 279.576 267.308C280.296 267.308 280.891 267.576 281.361 268.114V264.341H283.343V274.841H281.559L281.463 274.055C280.971 274.67 280.338 274.978 279.563 274.978C278.692 274.978 277.993 274.636 277.464 273.952C276.94 273.264 276.678 272.309 276.678 271.088ZM278.654 271.231C278.654 271.924 278.774 272.455 279.016 272.824C279.257 273.193 279.608 273.378 280.069 273.378C280.679 273.378 281.11 273.12 281.361 272.605V269.687C281.115 269.172 280.688 268.914 280.082 268.914C279.13 268.914 278.654 269.687 278.654 271.231ZM289.031 269.297C288.762 269.26 288.525 269.242 288.32 269.242C287.572 269.242 287.082 269.495 286.85 270.001V274.841H284.874V267.444H286.741L286.795 268.326C287.192 267.647 287.741 267.308 288.443 267.308C288.661 267.308 288.866 267.337 289.058 267.396L289.031 269.297ZM289.434 271.074C289.434 270.34 289.575 269.687 289.858 269.112C290.14 268.538 290.546 268.094 291.074 267.779C291.608 267.465 292.225 267.308 292.927 267.308C293.925 267.308 294.739 267.613 295.367 268.224C296.001 268.834 296.354 269.664 296.427 270.712L296.441 271.218C296.441 272.353 296.124 273.264 295.491 273.952C294.857 274.636 294.007 274.978 292.941 274.978C291.874 274.978 291.022 274.636 290.384 273.952C289.751 273.269 289.434 272.339 289.434 271.163V271.074ZM291.409 271.218C291.409 271.92 291.542 272.457 291.806 272.831C292.07 273.2 292.449 273.385 292.941 273.385C293.419 273.385 293.793 273.202 294.062 272.838C294.331 272.469 294.465 271.881 294.465 271.074C294.465 270.386 294.331 269.853 294.062 269.475C293.793 269.096 293.415 268.907 292.927 268.907C292.444 268.907 292.07 269.096 291.806 269.475C291.542 269.848 291.409 270.429 291.409 271.218ZM262.48 290.841H260.429V286.575H256.43V290.841H254.379V280.888H256.43V284.921H260.429V280.888H262.48V290.841ZM263.84 287.074C263.84 286.34 263.981 285.687 264.264 285.112C264.546 284.538 264.952 284.094 265.481 283.779C266.014 283.465 266.631 283.308 267.333 283.308C268.331 283.308 269.145 283.613 269.774 284.224C270.407 284.834 270.76 285.664 270.833 286.712L270.847 287.218C270.847 288.353 270.53 289.264 269.897 289.952C269.263 290.636 268.413 290.978 267.347 290.978C266.281 290.978 265.428 290.636 264.79 289.952C264.157 289.269 263.84 288.339 263.84 287.163V287.074ZM265.816 287.218C265.816 287.92 265.948 288.457 266.212 288.831C266.477 289.2 266.855 289.385 267.347 289.385C267.825 289.385 268.199 289.202 268.468 288.838C268.737 288.469 268.871 287.881 268.871 287.074C268.871 286.386 268.737 285.853 268.468 285.475C268.199 285.096 267.821 284.907 267.333 284.907C266.85 284.907 266.477 285.096 266.212 285.475C265.948 285.848 265.816 286.429 265.816 287.218ZM274.149 290.841H272.166V280.341H274.149V290.841ZM275.475 287.088C275.475 285.935 275.732 285.017 276.247 284.333C276.767 283.649 277.476 283.308 278.373 283.308C279.093 283.308 279.688 283.576 280.157 284.114V280.341H282.14V290.841H280.356L280.26 290.055C279.768 290.67 279.134 290.978 278.36 290.978C277.489 290.978 276.79 290.636 276.261 289.952C275.737 289.264 275.475 288.309 275.475 287.088ZM277.45 287.231C277.45 287.924 277.571 288.455 277.813 288.824C278.054 289.193 278.405 289.378 278.866 289.378C279.476 289.378 279.907 289.12 280.157 288.605V285.687C279.911 285.172 279.485 284.914 278.879 284.914C277.927 284.914 277.45 285.687 277.45 287.231ZM287.075 290.978C285.991 290.978 285.107 290.645 284.423 289.979C283.744 289.314 283.405 288.428 283.405 287.32V287.129C283.405 286.386 283.548 285.723 283.835 285.14C284.122 284.552 284.528 284.101 285.052 283.786C285.581 283.467 286.182 283.308 286.857 283.308C287.868 283.308 288.664 283.627 289.242 284.265C289.826 284.903 290.117 285.807 290.117 286.979V287.785H285.407C285.471 288.268 285.663 288.656 285.982 288.947C286.305 289.239 286.713 289.385 287.205 289.385C287.966 289.385 288.561 289.109 288.99 288.558L289.96 289.645C289.664 290.064 289.263 290.392 288.757 290.629C288.251 290.861 287.691 290.978 287.075 290.978ZM286.85 284.907C286.458 284.907 286.139 285.039 285.893 285.304C285.651 285.568 285.496 285.946 285.428 286.438H288.176V286.281C288.167 285.844 288.048 285.507 287.821 285.27C287.593 285.028 287.269 284.907 286.85 284.907ZM295.402 285.297C295.133 285.26 294.896 285.242 294.691 285.242C293.943 285.242 293.453 285.495 293.221 286.001V290.841H291.245V283.444H293.112L293.166 284.326C293.563 283.647 294.112 283.308 294.814 283.308C295.032 283.308 295.238 283.337 295.429 283.396L295.402 285.297ZM300.365 288.797C300.365 288.555 300.244 288.366 300.002 288.229C299.765 288.088 299.382 287.963 298.854 287.854C297.095 287.484 296.215 286.737 296.215 285.611C296.215 284.955 296.486 284.408 297.029 283.971C297.575 283.529 298.289 283.308 299.168 283.308C300.107 283.308 300.857 283.529 301.417 283.971C301.982 284.413 302.265 284.987 302.265 285.693H300.289C300.289 285.411 300.198 285.178 300.016 284.996C299.834 284.809 299.549 284.716 299.161 284.716C298.829 284.716 298.571 284.791 298.389 284.941C298.207 285.092 298.116 285.283 298.116 285.516C298.116 285.734 298.218 285.912 298.423 286.049C298.633 286.181 298.984 286.297 299.476 286.397C299.968 286.493 300.383 286.603 300.72 286.726C301.764 287.108 302.285 287.771 302.285 288.715C302.285 289.389 301.996 289.936 301.417 290.355C300.838 290.77 300.091 290.978 299.175 290.978C298.555 290.978 298.004 290.868 297.521 290.649C297.042 290.426 296.666 290.123 296.393 289.74C296.119 289.353 295.983 288.936 295.983 288.489H297.856C297.874 288.84 298.004 289.109 298.245 289.296C298.487 289.483 298.81 289.576 299.216 289.576C299.594 289.576 299.879 289.506 300.071 289.364C300.267 289.218 300.365 289.029 300.365 288.797Z" fill="white"/>
<path d="M99.8906 130.516H100.047C100.766 130.516 101.365 130.422 101.844 130.234C102.328 130.042 102.714 129.776 103 129.438C103.286 129.099 103.492 128.701 103.617 128.242C103.742 127.784 103.805 127.286 103.805 126.75V124.789C103.805 124.326 103.755 123.919 103.656 123.57C103.562 123.216 103.427 122.922 103.25 122.688C103.078 122.448 102.878 122.268 102.648 122.148C102.424 122.029 102.182 121.969 101.922 121.969C101.635 121.969 101.378 122.034 101.148 122.164C100.924 122.289 100.734 122.464 100.578 122.688C100.427 122.906 100.31 123.164 100.227 123.461C100.148 123.753 100.109 124.065 100.109 124.398C100.109 124.711 100.146 125.013 100.219 125.305C100.297 125.591 100.411 125.846 100.562 126.07C100.714 126.294 100.904 126.471 101.133 126.602C101.362 126.732 101.63 126.797 101.938 126.797C102.229 126.797 102.497 126.742 102.742 126.633C102.987 126.518 103.201 126.365 103.383 126.172C103.565 125.979 103.708 125.763 103.812 125.523C103.917 125.284 103.974 125.039 103.984 124.789L104.703 125.008C104.703 125.404 104.62 125.794 104.453 126.18C104.292 126.56 104.065 126.909 103.773 127.227C103.487 127.539 103.151 127.789 102.766 127.977C102.385 128.164 101.971 128.258 101.523 128.258C100.982 128.258 100.503 128.156 100.086 127.953C99.6745 127.745 99.3307 127.464 99.0547 127.109C98.7839 126.755 98.5807 126.349 98.4453 125.891C98.3099 125.432 98.2422 124.951 98.2422 124.445C98.2422 123.898 98.3255 123.385 98.4922 122.906C98.6589 122.427 98.901 122.005 99.2188 121.641C99.5365 121.271 99.9219 120.984 100.375 120.781C100.833 120.573 101.352 120.469 101.93 120.469C102.544 120.469 103.083 120.589 103.547 120.828C104.01 121.068 104.401 121.398 104.719 121.82C105.036 122.242 105.276 122.732 105.438 123.289C105.599 123.846 105.68 124.445 105.68 125.086V125.75C105.68 126.422 105.62 127.07 105.5 127.695C105.38 128.315 105.185 128.891 104.914 129.422C104.648 129.948 104.297 130.411 103.859 130.812C103.427 131.208 102.896 131.518 102.266 131.742C101.641 131.961 100.906 132.07 100.062 132.07H99.8906V130.516ZM115.305 127.945V129.445H107.102L107.039 128.312L111.945 120.625H113.453L111.82 123.422L109 127.945H115.305ZM113.883 120.625V132H112V120.625H113.883ZM116.484 123.414V122.812C116.484 122.38 116.578 121.987 116.766 121.633C116.953 121.279 117.227 120.995 117.586 120.781C117.945 120.568 118.378 120.461 118.883 120.461C119.404 120.461 119.841 120.568 120.195 120.781C120.555 120.995 120.828 121.279 121.016 121.633C121.203 121.987 121.297 122.38 121.297 122.812V123.414C121.297 123.836 121.203 124.224 121.016 124.578C120.833 124.932 120.562 125.216 120.203 125.43C119.849 125.643 119.414 125.75 118.898 125.75C118.388 125.75 117.951 125.643 117.586 125.43C117.227 125.216 116.953 124.932 116.766 124.578C116.578 124.224 116.484 123.836 116.484 123.414ZM117.789 122.812V123.414C117.789 123.622 117.828 123.82 117.906 124.008C117.99 124.195 118.115 124.346 118.281 124.461C118.448 124.576 118.654 124.633 118.898 124.633C119.148 124.633 119.352 124.576 119.508 124.461C119.669 124.346 119.789 124.195 119.867 124.008C119.945 123.82 119.984 123.622 119.984 123.414V122.812C119.984 122.599 119.943 122.398 119.859 122.211C119.781 122.018 119.661 121.865 119.5 121.75C119.339 121.635 119.133 121.578 118.883 121.578C118.643 121.578 118.44 121.635 118.273 121.75C118.112 121.865 117.99 122.018 117.906 122.211C117.828 122.398 117.789 122.599 117.789 122.812ZM121.969 129.82V129.211C121.969 128.784 122.062 128.393 122.25 128.039C122.443 127.685 122.719 127.401 123.078 127.188C123.438 126.974 123.87 126.867 124.375 126.867C124.896 126.867 125.333 126.974 125.688 127.188C126.047 127.401 126.318 127.685 126.5 128.039C126.688 128.393 126.781 128.784 126.781 129.211V129.82C126.781 130.247 126.688 130.638 126.5 130.992C126.318 131.346 126.049 131.63 125.695 131.844C125.341 132.057 124.909 132.164 124.398 132.164C123.883 132.164 123.443 132.057 123.078 131.844C122.719 131.63 122.443 131.346 122.25 130.992C122.062 130.638 121.969 130.247 121.969 129.82ZM123.281 129.211V129.82C123.281 130.029 123.323 130.227 123.406 130.414C123.495 130.602 123.622 130.755 123.789 130.875C123.956 130.99 124.156 131.047 124.391 131.047C124.656 131.047 124.87 130.99 125.031 130.875C125.193 130.755 125.307 130.604 125.375 130.422C125.448 130.234 125.484 130.034 125.484 129.82V129.211C125.484 128.997 125.443 128.797 125.359 128.609C125.281 128.422 125.159 128.271 124.992 128.156C124.831 128.042 124.625 127.984 124.375 127.984C124.13 127.984 123.927 128.042 123.766 128.156C123.604 128.271 123.482 128.422 123.398 128.609C123.32 128.797 123.281 128.997 123.281 129.211ZM124.844 122.25L119.289 131.141L118.328 130.586L123.883 121.695L124.844 122.25Z" fill="#40B3E0"/>
<path d="M254.222 130.239C254.222 130.948 254.058 131.544 253.729 132.028C253.401 132.513 252.953 132.88 252.386 133.13C251.823 133.375 251.188 133.497 250.479 133.497C249.771 133.497 249.133 133.375 248.565 133.13C247.998 132.88 247.55 132.513 247.222 132.028C246.893 131.544 246.729 130.948 246.729 130.239C246.729 129.771 246.821 129.346 247.003 128.966C247.185 128.581 247.443 128.25 247.776 127.974C248.115 127.693 248.511 127.476 248.964 127.325C249.422 127.174 249.922 127.099 250.464 127.099C251.183 127.099 251.826 127.232 252.393 127.497C252.961 127.763 253.407 128.13 253.729 128.599C254.058 129.068 254.222 129.614 254.222 130.239ZM252.331 130.146C252.331 129.765 252.253 129.432 252.097 129.146C251.94 128.859 251.722 128.638 251.44 128.482C251.159 128.325 250.834 128.247 250.464 128.247C250.089 128.247 249.763 128.325 249.487 128.482C249.211 128.638 248.995 128.859 248.839 129.146C248.688 129.432 248.612 129.765 248.612 130.146C248.612 130.531 248.688 130.864 248.839 131.146C248.99 131.422 249.206 131.633 249.487 131.778C249.768 131.924 250.099 131.997 250.479 131.997C250.86 131.997 251.188 131.924 251.464 131.778C251.74 131.633 251.953 131.422 252.104 131.146C252.255 130.864 252.331 130.531 252.331 130.146ZM253.964 124.958C253.964 125.526 253.813 126.031 253.511 126.474C253.214 126.916 252.802 127.265 252.276 127.521C251.75 127.771 251.151 127.896 250.479 127.896C249.802 127.896 249.198 127.771 248.667 127.521C248.141 127.265 247.727 126.916 247.425 126.474C247.128 126.031 246.979 125.526 246.979 124.958C246.979 124.281 247.128 123.711 247.425 123.247C247.727 122.778 248.141 122.422 248.667 122.177C249.193 121.932 249.795 121.81 250.472 121.81C251.149 121.81 251.75 121.932 252.276 122.177C252.802 122.422 253.214 122.778 253.511 123.247C253.813 123.711 253.964 124.281 253.964 124.958ZM252.081 125.021C252.081 124.682 252.013 124.385 251.878 124.13C251.748 123.87 251.563 123.666 251.323 123.521C251.084 123.375 250.8 123.302 250.472 123.302C250.143 123.302 249.86 123.372 249.62 123.513C249.38 123.653 249.196 123.851 249.065 124.107C248.935 124.362 248.87 124.666 248.87 125.021C248.87 125.37 248.935 125.674 249.065 125.935C249.196 126.19 249.38 126.39 249.62 126.536C249.865 126.682 250.151 126.755 250.479 126.755C250.808 126.755 251.091 126.682 251.331 126.536C251.571 126.39 251.755 126.19 251.886 125.935C252.016 125.674 252.081 125.37 252.081 125.021ZM263.315 130.239C263.315 130.948 263.151 131.544 262.823 132.028C262.495 132.513 262.047 132.88 261.479 133.13C260.917 133.375 260.282 133.497 259.573 133.497C258.865 133.497 258.227 133.375 257.659 133.13C257.091 132.88 256.643 132.513 256.315 132.028C255.987 131.544 255.823 130.948 255.823 130.239C255.823 129.771 255.914 129.346 256.097 128.966C256.279 128.581 256.537 128.25 256.87 127.974C257.209 127.693 257.604 127.476 258.058 127.325C258.516 127.174 259.016 127.099 259.558 127.099C260.276 127.099 260.92 127.232 261.487 127.497C262.055 127.763 262.5 128.13 262.823 128.599C263.151 129.068 263.315 129.614 263.315 130.239ZM261.425 130.146C261.425 129.765 261.347 129.432 261.19 129.146C261.034 128.859 260.815 128.638 260.534 128.482C260.253 128.325 259.927 128.247 259.558 128.247C259.183 128.247 258.857 128.325 258.581 128.482C258.305 128.638 258.089 128.859 257.933 129.146C257.782 129.432 257.706 129.765 257.706 130.146C257.706 130.531 257.782 130.864 257.933 131.146C258.084 131.422 258.3 131.633 258.581 131.778C258.862 131.924 259.193 131.997 259.573 131.997C259.953 131.997 260.282 131.924 260.558 131.778C260.834 131.633 261.047 131.422 261.198 131.146C261.349 130.864 261.425 130.531 261.425 130.146ZM263.058 124.958C263.058 125.526 262.907 126.031 262.604 126.474C262.308 126.916 261.896 127.265 261.37 127.521C260.844 127.771 260.245 127.896 259.573 127.896C258.896 127.896 258.292 127.771 257.761 127.521C257.235 127.265 256.821 126.916 256.518 126.474C256.222 126.031 256.073 125.526 256.073 124.958C256.073 124.281 256.222 123.711 256.518 123.247C256.821 122.778 257.235 122.422 257.761 122.177C258.287 121.932 258.888 121.81 259.565 121.81C260.242 121.81 260.844 121.932 261.37 122.177C261.896 122.422 262.308 122.778 262.604 123.247C262.907 123.711 263.058 124.281 263.058 124.958ZM261.175 125.021C261.175 124.682 261.107 124.385 260.972 124.13C260.841 123.87 260.657 123.666 260.417 123.521C260.177 123.375 259.893 123.302 259.565 123.302C259.237 123.302 258.953 123.372 258.714 123.513C258.474 123.653 258.289 123.851 258.159 124.107C258.029 124.362 257.964 124.666 257.964 125.021C257.964 125.37 258.029 125.674 258.159 125.935C258.289 126.19 258.474 126.39 258.714 126.536C258.959 126.682 259.245 126.755 259.573 126.755C259.901 126.755 260.185 126.682 260.425 126.536C260.664 126.39 260.849 126.19 260.979 125.935C261.11 125.674 261.175 125.37 261.175 125.021ZM264.893 124.755V124.153C264.893 123.721 264.987 123.328 265.175 122.974C265.362 122.62 265.636 122.336 265.995 122.122C266.354 121.909 266.787 121.802 267.292 121.802C267.813 121.802 268.25 121.909 268.604 122.122C268.964 122.336 269.237 122.62 269.425 122.974C269.612 123.328 269.706 123.721 269.706 124.153V124.755C269.706 125.177 269.612 125.565 269.425 125.919C269.242 126.273 268.972 126.557 268.612 126.771C268.258 126.984 267.823 127.091 267.308 127.091C266.797 127.091 266.36 126.984 265.995 126.771C265.636 126.557 265.362 126.273 265.175 125.919C264.987 125.565 264.893 125.177 264.893 124.755ZM266.198 124.153V124.755C266.198 124.963 266.237 125.161 266.315 125.349C266.399 125.536 266.524 125.687 266.69 125.802C266.857 125.916 267.063 125.974 267.308 125.974C267.558 125.974 267.761 125.916 267.917 125.802C268.078 125.687 268.198 125.536 268.276 125.349C268.354 125.161 268.393 124.963 268.393 124.755V124.153C268.393 123.94 268.352 123.739 268.268 123.552C268.19 123.359 268.071 123.206 267.909 123.091C267.748 122.976 267.542 122.919 267.292 122.919C267.052 122.919 266.849 122.976 266.683 123.091C266.521 123.206 266.399 123.359 266.315 123.552C266.237 123.739 266.198 123.94 266.198 124.153ZM270.378 131.161V130.552C270.378 130.125 270.472 129.734 270.659 129.38C270.852 129.026 271.128 128.742 271.487 128.528C271.847 128.315 272.279 128.208 272.784 128.208C273.305 128.208 273.742 128.315 274.097 128.528C274.456 128.742 274.727 129.026 274.909 129.38C275.097 129.734 275.19 130.125 275.19 130.552V131.161C275.19 131.588 275.097 131.979 274.909 132.333C274.727 132.687 274.459 132.971 274.104 133.185C273.75 133.398 273.318 133.505 272.808 133.505C272.292 133.505 271.852 133.398 271.487 133.185C271.128 132.971 270.852 132.687 270.659 132.333C270.472 131.979 270.378 131.588 270.378 131.161ZM271.69 130.552V131.161C271.69 131.37 271.732 131.568 271.815 131.755C271.904 131.943 272.032 132.096 272.198 132.216C272.365 132.331 272.565 132.388 272.8 132.388C273.065 132.388 273.279 132.331 273.44 132.216C273.602 132.096 273.716 131.945 273.784 131.763C273.857 131.575 273.893 131.375 273.893 131.161V130.552C273.893 130.338 273.852 130.138 273.768 129.95C273.69 129.763 273.568 129.612 273.401 129.497C273.24 129.383 273.034 129.325 272.784 129.325C272.539 129.325 272.336 129.383 272.175 129.497C272.013 129.612 271.891 129.763 271.808 129.95C271.729 130.138 271.69 130.338 271.69 130.552ZM273.253 123.591L267.698 132.482L266.737 131.927L272.292 123.036L273.253 123.591Z" fill="#40B3E0"/>
<path d="M130.69 230.945V232.445H122.487L122.424 231.312L127.33 223.625H128.838L127.205 226.422L124.385 230.945H130.69ZM129.268 223.625V235H127.385V223.625H129.268ZM131.869 226.414V225.812C131.869 225.38 131.963 224.987 132.151 224.633C132.338 224.279 132.612 223.995 132.971 223.781C133.33 223.568 133.763 223.461 134.268 223.461C134.789 223.461 135.226 223.568 135.58 223.781C135.94 223.995 136.213 224.279 136.401 224.633C136.588 224.987 136.682 225.38 136.682 225.812V226.414C136.682 226.836 136.588 227.224 136.401 227.578C136.218 227.932 135.947 228.216 135.588 228.43C135.234 228.643 134.799 228.75 134.283 228.75C133.773 228.75 133.335 228.643 132.971 228.43C132.612 228.216 132.338 227.932 132.151 227.578C131.963 227.224 131.869 226.836 131.869 226.414ZM133.174 225.812V226.414C133.174 226.622 133.213 226.82 133.291 227.008C133.375 227.195 133.5 227.346 133.666 227.461C133.833 227.576 134.039 227.633 134.283 227.633C134.533 227.633 134.737 227.576 134.893 227.461C135.054 227.346 135.174 227.195 135.252 227.008C135.33 226.82 135.369 226.622 135.369 226.414V225.812C135.369 225.599 135.328 225.398 135.244 225.211C135.166 225.018 135.046 224.865 134.885 224.75C134.723 224.635 134.518 224.578 134.268 224.578C134.028 224.578 133.825 224.635 133.658 224.75C133.497 224.865 133.375 225.018 133.291 225.211C133.213 225.398 133.174 225.599 133.174 225.812ZM137.354 232.82V232.211C137.354 231.784 137.447 231.393 137.635 231.039C137.828 230.685 138.104 230.401 138.463 230.188C138.822 229.974 139.255 229.867 139.76 229.867C140.281 229.867 140.718 229.974 141.072 230.188C141.432 230.401 141.703 230.685 141.885 231.039C142.072 231.393 142.166 231.784 142.166 232.211V232.82C142.166 233.247 142.072 233.638 141.885 233.992C141.703 234.346 141.434 234.63 141.08 234.844C140.726 235.057 140.294 235.164 139.783 235.164C139.268 235.164 138.828 235.057 138.463 234.844C138.104 234.63 137.828 234.346 137.635 233.992C137.447 233.638 137.354 233.247 137.354 232.82ZM138.666 232.211V232.82C138.666 233.029 138.708 233.227 138.791 233.414C138.88 233.602 139.007 233.755 139.174 233.875C139.341 233.99 139.541 234.047 139.776 234.047C140.041 234.047 140.255 233.99 140.416 233.875C140.578 233.755 140.692 233.604 140.76 233.422C140.833 233.234 140.869 233.034 140.869 232.82V232.211C140.869 231.997 140.828 231.797 140.744 231.609C140.666 231.422 140.544 231.271 140.377 231.156C140.216 231.042 140.01 230.984 139.76 230.984C139.515 230.984 139.312 231.042 139.151 231.156C138.989 231.271 138.867 231.422 138.783 231.609C138.705 231.797 138.666 231.997 138.666 232.211ZM140.229 225.25L134.674 234.141L133.713 233.586L139.268 224.695L140.229 225.25Z" fill="#40B3E0"/>
<path d="M235.026 225.625C235.026 226.182 234.882 226.68 234.596 227.117C234.309 227.549 233.919 227.891 233.424 228.141C234.018 228.417 234.473 228.794 234.791 229.273C235.114 229.753 235.276 230.294 235.276 230.898C235.276 231.898 234.937 232.693 234.26 233.281C233.583 233.865 232.682 234.156 231.557 234.156C230.427 234.156 229.52 233.862 228.838 233.273C228.161 232.685 227.822 231.893 227.822 230.898C227.822 230.289 227.984 229.742 228.307 229.258C228.63 228.773 229.083 228.401 229.666 228.141C229.177 227.891 228.789 227.549 228.502 227.117C228.221 226.68 228.08 226.182 228.08 225.625C228.08 224.656 228.393 223.888 229.018 223.32C229.643 222.753 230.487 222.469 231.549 222.469C232.617 222.469 233.463 222.753 234.088 223.32C234.713 223.888 235.026 224.656 235.026 225.625ZM233.377 230.805C233.377 230.242 233.208 229.789 232.869 229.445C232.536 229.096 232.093 228.922 231.541 228.922C230.989 228.922 230.546 229.094 230.213 229.438C229.885 229.781 229.721 230.237 229.721 230.805C229.721 231.362 229.882 231.807 230.205 232.141C230.533 232.474 230.984 232.641 231.557 232.641C232.13 232.641 232.575 232.479 232.893 232.156C233.216 231.833 233.377 231.383 233.377 230.805ZM233.135 225.695C233.135 225.201 232.992 224.794 232.705 224.477C232.419 224.154 232.033 223.992 231.549 223.992C231.065 223.992 230.682 224.146 230.401 224.453C230.119 224.755 229.979 225.169 229.979 225.695C229.979 226.216 230.119 226.63 230.401 226.938C230.687 227.245 231.072 227.398 231.557 227.398C232.041 227.398 232.424 227.245 232.705 226.938C232.992 226.63 233.135 226.216 233.135 225.695ZM236.877 224.812C236.877 224.125 237.098 223.562 237.541 223.125C237.984 222.682 238.565 222.461 239.283 222.461C240.013 222.461 240.596 222.682 241.033 223.125C241.476 223.562 241.697 224.138 241.697 224.852V225.414C241.697 226.096 241.476 226.656 241.033 227.094C240.596 227.531 240.018 227.75 239.299 227.75C238.596 227.75 238.015 227.536 237.557 227.109C237.104 226.677 236.877 226.096 236.877 225.367V224.812ZM238.205 225.414C238.205 225.773 238.304 226.065 238.502 226.289C238.705 226.508 238.971 226.617 239.299 226.617C239.622 226.617 239.882 226.508 240.08 226.289C240.278 226.065 240.377 225.763 240.377 225.383V224.812C240.377 224.453 240.276 224.161 240.072 223.938C239.875 223.714 239.612 223.602 239.283 223.602C238.955 223.602 238.692 223.716 238.494 223.945C238.302 224.169 238.205 224.466 238.205 224.836V225.414ZM242.346 231.211C242.346 230.513 242.572 229.948 243.026 229.516C243.479 229.083 244.057 228.867 244.76 228.867C245.468 228.867 246.046 229.083 246.494 229.516C246.947 229.948 247.174 230.531 247.174 231.266V231.82C247.174 232.497 246.955 233.057 246.518 233.5C246.085 233.938 245.505 234.156 244.776 234.156C244.046 234.156 243.458 233.94 243.01 233.508C242.567 233.07 242.346 232.495 242.346 231.781V231.211ZM243.674 231.82C243.674 232.174 243.776 232.466 243.979 232.695C244.187 232.919 244.453 233.031 244.776 233.031C245.109 233.031 245.369 232.924 245.557 232.711C245.75 232.492 245.846 232.188 245.846 231.797V231.211C245.846 230.846 245.744 230.555 245.541 230.336C245.338 230.117 245.078 230.008 244.76 230.008C244.437 230.008 244.174 230.117 243.971 230.336C243.773 230.555 243.674 230.857 243.674 231.242V231.82ZM239.69 233.148L238.713 232.586L244.268 223.695L245.244 224.258L239.69 233.148Z" fill="#40B3E0"/>
<path d="M144.491 161.709H145.551V162.852H144.491V164.75H143.067V162.852H139.382L139.341 161.984L143.02 156.219H144.491V161.709ZM140.835 161.709H143.067V158.146L142.962 158.334L140.835 161.709ZM146.436 157.859C146.436 157.344 146.602 156.922 146.934 156.594C147.266 156.262 147.702 156.096 148.241 156.096C148.788 156.096 149.225 156.262 149.553 156.594C149.885 156.922 150.051 157.354 150.051 157.889V158.311C150.051 158.822 149.885 159.242 149.553 159.57C149.225 159.898 148.792 160.062 148.253 160.062C147.725 160.062 147.29 159.902 146.946 159.582C146.606 159.258 146.436 158.822 146.436 158.275V157.859ZM147.432 158.311C147.432 158.58 147.507 158.799 147.655 158.967C147.807 159.131 148.007 159.213 148.253 159.213C148.495 159.213 148.69 159.131 148.839 158.967C148.987 158.799 149.061 158.572 149.061 158.287V157.859C149.061 157.59 148.985 157.371 148.833 157.203C148.684 157.035 148.487 156.951 148.241 156.951C147.995 156.951 147.798 157.037 147.649 157.209C147.505 157.377 147.432 157.6 147.432 157.877V158.311ZM150.538 162.658C150.538 162.135 150.708 161.711 151.048 161.387C151.387 161.062 151.821 160.9 152.348 160.9C152.88 160.9 153.313 161.062 153.649 161.387C153.989 161.711 154.159 162.148 154.159 162.699V163.115C154.159 163.623 153.995 164.043 153.667 164.375C153.343 164.703 152.907 164.867 152.36 164.867C151.813 164.867 151.372 164.705 151.036 164.381C150.704 164.053 150.538 163.621 150.538 163.086V162.658ZM151.534 163.115C151.534 163.381 151.61 163.6 151.762 163.771C151.919 163.939 152.118 164.023 152.36 164.023C152.61 164.023 152.805 163.943 152.946 163.783C153.091 163.619 153.163 163.391 153.163 163.098V162.658C153.163 162.385 153.087 162.166 152.934 162.002C152.782 161.838 152.587 161.756 152.348 161.756C152.106 161.756 151.909 161.838 151.757 162.002C151.608 162.166 151.534 162.393 151.534 162.682V163.115ZM148.546 164.111L147.813 163.689L151.979 157.021L152.712 157.443L148.546 164.111Z" fill="white"/>
<path d="M222.048 158.469C222.048 158.887 221.94 159.26 221.725 159.588C221.51 159.912 221.218 160.168 220.846 160.355C221.292 160.562 221.634 160.846 221.872 161.205C222.114 161.564 222.235 161.971 222.235 162.424C222.235 163.174 221.981 163.77 221.473 164.211C220.966 164.648 220.29 164.867 219.446 164.867C218.598 164.867 217.919 164.646 217.407 164.205C216.899 163.764 216.645 163.17 216.645 162.424C216.645 161.967 216.766 161.557 217.009 161.193C217.251 160.83 217.591 160.551 218.028 160.355C217.661 160.168 217.37 159.912 217.155 159.588C216.944 159.26 216.839 158.887 216.839 158.469C216.839 157.742 217.073 157.166 217.542 156.74C218.01 156.314 218.643 156.102 219.44 156.102C220.241 156.102 220.876 156.314 221.344 156.74C221.813 157.166 222.048 157.742 222.048 158.469ZM220.811 162.354C220.811 161.932 220.684 161.592 220.43 161.334C220.18 161.072 219.848 160.941 219.434 160.941C219.02 160.941 218.688 161.07 218.438 161.328C218.192 161.586 218.069 161.928 218.069 162.354C218.069 162.771 218.19 163.105 218.432 163.355C218.678 163.605 219.016 163.73 219.446 163.73C219.876 163.73 220.21 163.609 220.448 163.367C220.69 163.125 220.811 162.787 220.811 162.354ZM220.63 158.521C220.63 158.15 220.522 157.846 220.307 157.607C220.093 157.365 219.803 157.244 219.44 157.244C219.077 157.244 218.79 157.359 218.579 157.59C218.368 157.816 218.262 158.127 218.262 158.521C218.262 158.912 218.368 159.223 218.579 159.453C218.794 159.684 219.083 159.799 219.446 159.799C219.809 159.799 220.096 159.684 220.307 159.453C220.522 159.223 220.63 158.912 220.63 158.521ZM223.436 157.859C223.436 157.344 223.602 156.922 223.934 156.594C224.266 156.262 224.702 156.096 225.241 156.096C225.788 156.096 226.225 156.262 226.553 156.594C226.885 156.922 227.051 157.354 227.051 157.889V158.311C227.051 158.822 226.885 159.242 226.553 159.57C226.225 159.898 225.792 160.062 225.253 160.062C224.725 160.062 224.29 159.902 223.946 159.582C223.606 159.258 223.436 158.822 223.436 158.275V157.859ZM224.432 158.311C224.432 158.58 224.507 158.799 224.655 158.967C224.807 159.131 225.007 159.213 225.253 159.213C225.495 159.213 225.69 159.131 225.839 158.967C225.987 158.799 226.061 158.572 226.061 158.287V157.859C226.061 157.59 225.985 157.371 225.833 157.203C225.684 157.035 225.487 156.951 225.241 156.951C224.995 156.951 224.798 157.037 224.649 157.209C224.505 157.377 224.432 157.6 224.432 157.877V158.311ZM227.538 162.658C227.538 162.135 227.708 161.711 228.048 161.387C228.387 161.062 228.821 160.9 229.348 160.9C229.88 160.9 230.313 161.062 230.649 161.387C230.989 161.711 231.159 162.148 231.159 162.699V163.115C231.159 163.623 230.995 164.043 230.667 164.375C230.343 164.703 229.907 164.867 229.36 164.867C228.813 164.867 228.372 164.705 228.036 164.381C227.704 164.053 227.538 163.621 227.538 163.086V162.658ZM228.534 163.115C228.534 163.381 228.61 163.6 228.762 163.771C228.919 163.939 229.118 164.023 229.36 164.023C229.61 164.023 229.805 163.943 229.946 163.783C230.091 163.619 230.163 163.391 230.163 163.098V162.658C230.163 162.385 230.087 162.166 229.934 162.002C229.782 161.838 229.587 161.756 229.348 161.756C229.106 161.756 228.909 161.838 228.757 162.002C228.608 162.166 228.534 162.393 228.534 162.682V163.115ZM225.546 164.111L224.813 163.689L228.979 157.021L229.712 157.443L225.546 164.111Z" fill="white"/>
<path d="M139.246 103.25H137.828V96.4004L135.736 97.1152V95.9141L139.064 94.6895H139.246V103.25ZM142.152 96.3594C142.152 95.8438 142.318 95.4219 142.65 95.0938C142.982 94.7617 143.418 94.5957 143.957 94.5957C144.504 94.5957 144.941 94.7617 145.269 95.0938C145.601 95.4219 145.767 95.8535 145.767 96.3887V96.8105C145.767 97.3223 145.601 97.7422 145.269 98.0703C144.941 98.3984 144.508 98.5625 143.969 98.5625C143.441 98.5625 143.006 98.4023 142.662 98.082C142.322 97.7578 142.152 97.3223 142.152 96.7754V96.3594ZM143.148 96.8105C143.148 97.0801 143.222 97.2988 143.371 97.4668C143.523 97.6309 143.722 97.7129 143.969 97.7129C144.211 97.7129 144.406 97.6309 144.555 97.4668C144.703 97.2988 144.777 97.0723 144.777 96.7871V96.3594C144.777 96.0898 144.701 95.8711 144.549 95.7031C144.4 95.5352 144.203 95.4512 143.957 95.4512C143.711 95.4512 143.513 95.5371 143.365 95.709C143.221 95.877 143.148 96.0996 143.148 96.377V96.8105ZM146.254 101.158C146.254 100.635 146.424 100.211 146.763 99.8867C147.103 99.5625 147.537 99.4004 148.064 99.4004C148.596 99.4004 149.029 99.5625 149.365 99.8867C149.705 100.211 149.875 100.648 149.875 101.199V101.615C149.875 102.123 149.711 102.543 149.383 102.875C149.058 103.203 148.623 103.367 148.076 103.367C147.529 103.367 147.088 103.205 146.752 102.881C146.42 102.553 146.254 102.121 146.254 101.586V101.158ZM147.25 101.615C147.25 101.881 147.326 102.1 147.478 102.271C147.635 102.439 147.834 102.523 148.076 102.523C148.326 102.523 148.521 102.443 148.662 102.283C148.806 102.119 148.879 101.891 148.879 101.598V101.158C148.879 100.885 148.803 100.666 148.65 100.502C148.498 100.338 148.303 100.256 148.064 100.256C147.822 100.256 147.625 100.338 147.472 100.502C147.324 100.666 147.25 100.893 147.25 101.182V101.615ZM144.262 102.611L143.529 102.189L147.695 95.5215L148.428 95.9434L144.262 102.611Z" fill="white"/>
<path d="M226.388 105.114H220.652V104.135L223.494 101.036C223.904 100.578 224.195 100.198 224.367 99.8929C224.542 99.5844 224.63 99.2758 224.63 98.9672C224.63 98.5609 224.515 98.2328 224.285 97.9828C224.058 97.7328 223.751 97.6078 223.365 97.6078C222.904 97.6078 222.546 97.7484 222.292 98.0297C222.039 98.3109 221.912 98.6957 221.912 99.184H220.488C220.488 98.6644 220.605 98.1976 220.839 97.7836C221.078 97.3656 221.416 97.0414 221.853 96.8109C222.294 96.5804 222.802 96.4652 223.376 96.4652C224.205 96.4652 224.857 96.6742 225.333 97.0922C225.814 97.5062 226.054 98.0804 226.054 98.8148C226.054 99.2406 225.933 99.6879 225.691 100.157C225.453 100.621 225.06 101.151 224.513 101.745L222.427 103.977H226.388V105.114ZM227.414 98.223C227.414 97.7074 227.58 97.2855 227.912 96.9574C228.244 96.6254 228.679 96.4594 229.218 96.4594C229.765 96.4594 230.203 96.6254 230.531 96.9574C230.863 97.2855 231.029 97.7172 231.029 98.2523V98.6742C231.029 99.1859 230.863 99.6058 230.531 99.934C230.203 100.262 229.769 100.426 229.23 100.426C228.703 100.426 228.267 100.266 227.923 99.9457C227.583 99.6215 227.414 99.1859 227.414 98.639V98.223ZM228.41 98.6742C228.41 98.9437 228.484 99.1625 228.632 99.3304C228.785 99.4945 228.984 99.5765 229.23 99.5765C229.472 99.5765 229.667 99.4945 229.816 99.3304C229.964 99.1625 230.039 98.9359 230.039 98.6508V98.223C230.039 97.9535 229.962 97.7347 229.81 97.5668C229.662 97.3988 229.464 97.3148 229.218 97.3148C228.972 97.3148 228.775 97.4008 228.626 97.5726C228.482 97.7406 228.41 97.9633 228.41 98.2406V98.6742ZM231.515 103.022C231.515 102.498 231.685 102.075 232.025 101.75C232.365 101.426 232.798 101.264 233.326 101.264C233.857 101.264 234.291 101.426 234.626 101.75C234.966 102.075 235.136 102.512 235.136 103.063V103.479C235.136 103.987 234.972 104.407 234.644 104.739C234.32 105.067 233.884 105.231 233.337 105.231C232.791 105.231 232.349 105.069 232.013 104.745C231.681 104.416 231.515 103.985 231.515 103.45V103.022ZM232.511 103.479C232.511 103.745 232.587 103.963 232.74 104.135C232.896 104.303 233.095 104.387 233.337 104.387C233.587 104.387 233.783 104.307 233.923 104.147C234.068 103.983 234.14 103.754 234.14 103.461V103.022C234.14 102.748 234.064 102.53 233.912 102.366C233.759 102.202 233.564 102.12 233.326 102.12C233.083 102.12 232.886 102.202 232.734 102.366C232.585 102.53 232.511 102.756 232.511 103.045V103.479ZM229.523 104.475L228.791 104.053L232.957 97.3851L233.689 97.807L229.523 104.475Z" fill="white"/>
<path d="M176.824 117.215H183.045V119.568H173.895V105.349H176.824V117.215ZM187.664 114.558V119.568H184.734V105.349H190.281C191.349 105.349 192.286 105.545 193.094 105.935C193.908 106.326 194.533 106.883 194.969 107.605C195.405 108.321 195.623 109.139 195.623 110.057C195.623 111.45 195.145 112.55 194.187 113.357C193.237 114.158 191.919 114.558 190.232 114.558H187.664ZM187.664 112.185H190.281C191.056 112.185 191.645 112.003 192.049 111.639C192.459 111.274 192.664 110.753 192.664 110.076C192.664 109.379 192.459 108.816 192.049 108.387C191.639 107.957 191.072 107.736 190.35 107.723H187.664V112.185Z" fill="#40B3E0"/>
<path d="M163.208 199H162.364V192.602H163.208V199ZM165.396 194.245L165.422 194.843C165.786 194.386 166.26 194.157 166.846 194.157C167.851 194.157 168.358 194.724 168.367 195.858V199H167.554V195.854C167.551 195.511 167.472 195.257 167.316 195.093C167.164 194.929 166.925 194.847 166.6 194.847C166.336 194.847 166.105 194.917 165.906 195.058C165.707 195.199 165.551 195.383 165.44 195.612V199H164.627V194.245H165.396ZM171.162 197.897L172.339 194.245H173.17L171.465 199H170.845L169.123 194.245H169.953L171.162 197.897ZM175.864 199.088C175.219 199.088 174.695 198.877 174.291 198.455C173.886 198.03 173.684 197.463 173.684 196.754V196.605C173.684 196.133 173.773 195.713 173.952 195.344C174.134 194.972 174.386 194.682 174.708 194.474C175.033 194.263 175.385 194.157 175.763 194.157C176.381 194.157 176.861 194.361 177.204 194.768C177.547 195.175 177.718 195.758 177.718 196.517V196.855H174.497C174.509 197.324 174.645 197.704 174.906 197.994C175.169 198.281 175.503 198.424 175.908 198.424C176.195 198.424 176.438 198.366 176.637 198.249C176.836 198.131 177.011 197.976 177.16 197.783L177.657 198.169C177.258 198.782 176.661 199.088 175.864 199.088ZM175.763 194.825C175.435 194.825 175.159 194.945 174.937 195.186C174.714 195.423 174.576 195.757 174.523 196.188H176.905V196.126C176.882 195.713 176.771 195.394 176.571 195.168C176.372 194.939 176.103 194.825 175.763 194.825ZM181.432 197.739C181.432 197.519 181.348 197.349 181.181 197.229C181.017 197.106 180.729 197 180.315 196.913C179.905 196.825 179.579 196.719 179.335 196.596C179.095 196.473 178.917 196.327 178.799 196.157C178.685 195.987 178.628 195.785 178.628 195.55C178.628 195.161 178.792 194.831 179.12 194.562C179.451 194.292 179.873 194.157 180.386 194.157C180.925 194.157 181.361 194.296 181.695 194.575C182.032 194.853 182.201 195.209 182.201 195.643H181.383C181.383 195.42 181.288 195.228 181.098 195.067C180.91 194.906 180.673 194.825 180.386 194.825C180.09 194.825 179.858 194.89 179.691 195.019C179.524 195.147 179.441 195.316 179.441 195.524C179.441 195.72 179.519 195.868 179.674 195.968C179.829 196.067 180.109 196.163 180.513 196.253C180.92 196.344 181.25 196.453 181.502 196.579C181.754 196.705 181.94 196.857 182.06 197.036C182.183 197.211 182.245 197.427 182.245 197.682C182.245 198.106 182.075 198.448 181.735 198.706C181.395 198.96 180.954 199.088 180.412 199.088C180.031 199.088 179.694 199.021 179.401 198.886C179.108 198.751 178.878 198.563 178.711 198.323C178.547 198.08 178.465 197.818 178.465 197.537H179.278C179.293 197.809 179.401 198.026 179.604 198.187C179.809 198.345 180.078 198.424 180.412 198.424C180.72 198.424 180.966 198.363 181.15 198.24C181.338 198.114 181.432 197.947 181.432 197.739ZM184.407 193.094V194.245H185.294V194.874H184.407V197.822C184.407 198.013 184.446 198.156 184.525 198.253C184.604 198.347 184.739 198.394 184.93 198.394C185.023 198.394 185.152 198.376 185.316 198.341V199C185.103 199.059 184.895 199.088 184.692 199.088C184.329 199.088 184.055 198.978 183.871 198.758C183.686 198.539 183.594 198.227 183.594 197.822V194.874H182.728V194.245H183.594V193.094H184.407ZM187.013 194.245L187.035 194.772C187.383 194.362 187.854 194.157 188.445 194.157C189.11 194.157 189.563 194.412 189.803 194.922C189.961 194.693 190.167 194.509 190.418 194.368C190.673 194.228 190.974 194.157 191.319 194.157C192.362 194.157 192.893 194.709 192.91 195.814V199H192.097V195.862C192.097 195.522 192.02 195.269 191.864 195.102C191.709 194.932 191.448 194.847 191.082 194.847C190.78 194.847 190.53 194.938 190.331 195.12C190.131 195.298 190.016 195.54 189.983 195.845V199H189.166V195.884C189.166 195.193 188.828 194.847 188.151 194.847C187.618 194.847 187.253 195.074 187.057 195.528V199H186.244V194.245H187.013ZM196.114 199.088C195.469 199.088 194.945 198.877 194.541 198.455C194.136 198.03 193.934 197.463 193.934 196.754V196.605C193.934 196.133 194.023 195.713 194.202 195.344C194.384 194.972 194.636 194.682 194.958 194.474C195.283 194.263 195.635 194.157 196.013 194.157C196.631 194.157 197.111 194.361 197.454 194.768C197.797 195.175 197.968 195.758 197.968 196.517V196.855H194.747C194.759 197.324 194.895 197.704 195.156 197.994C195.419 198.281 195.753 198.424 196.158 198.424C196.445 198.424 196.688 198.366 196.887 198.249C197.086 198.131 197.261 197.976 197.41 197.783L197.907 198.169C197.508 198.782 196.911 199.088 196.114 199.088ZM196.013 194.825C195.685 194.825 195.409 194.945 195.187 195.186C194.964 195.423 194.826 195.757 194.773 196.188H197.155V196.126C197.132 195.713 197.021 195.394 196.821 195.168C196.622 194.939 196.353 194.825 196.013 194.825ZM199.682 194.245L199.708 194.843C200.072 194.386 200.546 194.157 201.132 194.157C202.137 194.157 202.644 194.724 202.653 195.858V199H201.84V195.854C201.837 195.511 201.758 195.257 201.603 195.093C201.45 194.929 201.211 194.847 200.886 194.847C200.623 194.847 200.391 194.917 200.192 195.058C199.993 195.199 199.837 195.383 199.726 195.612V199H198.913V194.245H199.682ZM204.982 193.094V194.245H205.87V194.874H204.982V197.822C204.982 198.013 205.021 198.156 205.101 198.253C205.18 198.347 205.314 198.394 205.505 198.394C205.599 198.394 205.728 198.376 205.892 198.341V199C205.678 199.059 205.47 199.088 205.268 199.088C204.904 199.088 204.63 198.978 204.446 198.758C204.261 198.539 204.169 198.227 204.169 197.822V194.874H203.303V194.245H204.169V193.094H204.982ZM164.5 208.282C164.5 207.974 164.584 207.691 164.754 207.434C164.927 207.176 165.255 206.875 165.739 206.533C165.455 206.187 165.264 205.909 165.167 205.698C165.071 205.487 165.022 205.277 165.022 205.069C165.022 204.583 165.166 204.202 165.453 203.927C165.74 203.651 166.13 203.514 166.622 203.514C167.062 203.514 167.425 203.643 167.712 203.9C167.999 204.155 168.143 204.478 168.143 204.867C168.143 205.125 168.077 205.364 167.945 205.583C167.816 205.8 167.589 206.029 167.264 206.269L166.793 206.616L168.217 208.317C168.417 207.936 168.516 207.513 168.516 207.047H169.25C169.25 207.794 169.07 208.414 168.709 208.906L169.624 210H168.648L168.222 209.495C168.005 209.688 167.75 209.836 167.457 209.938C167.167 210.038 166.871 210.088 166.569 210.088C165.945 210.088 165.444 209.922 165.066 209.591C164.688 209.26 164.5 208.824 164.5 208.282ZM166.569 209.424C167 209.424 167.394 209.26 167.751 208.932L166.191 207.064L166.046 207.17C165.557 207.53 165.312 207.901 165.312 208.282C165.312 208.627 165.424 208.904 165.646 209.112C165.872 209.32 166.18 209.424 166.569 209.424ZM165.835 205.043C165.835 205.324 166.008 205.676 166.354 206.098L166.873 205.733C167.072 205.592 167.208 205.459 167.281 205.333C167.354 205.204 167.391 205.049 167.391 204.867C167.391 204.671 167.318 204.508 167.171 204.379C167.025 204.248 166.84 204.182 166.618 204.182C166.377 204.182 166.187 204.264 166.046 204.428C165.906 204.589 165.835 204.794 165.835 205.043ZM172.629 210V203.602H174.721C175.416 203.602 175.937 203.745 176.286 204.032C176.637 204.319 176.813 204.744 176.813 205.307C176.813 205.605 176.728 205.871 176.558 206.102C176.388 206.331 176.157 206.508 175.864 206.634C176.209 206.73 176.482 206.915 176.681 207.188C176.883 207.457 176.984 207.779 176.984 208.154C176.984 208.729 176.798 209.18 176.426 209.508C176.054 209.836 175.528 210 174.849 210H172.629ZM173.473 207.007V209.31H174.866C175.259 209.31 175.568 209.209 175.793 209.007C176.022 208.802 176.136 208.521 176.136 208.163C176.136 207.393 175.717 207.007 174.879 207.007H173.473ZM173.473 206.331H174.748C175.117 206.331 175.411 206.238 175.631 206.054C175.854 205.869 175.965 205.619 175.965 205.302C175.965 204.951 175.862 204.696 175.657 204.538C175.452 204.376 175.14 204.296 174.721 204.296H173.473V206.331ZM181.045 209.53C180.729 209.902 180.264 210.088 179.652 210.088C179.145 210.088 178.758 209.941 178.492 209.648C178.228 209.353 178.095 208.916 178.092 208.339V205.245H178.905V208.317C178.905 209.038 179.198 209.398 179.784 209.398C180.405 209.398 180.818 209.167 181.023 208.704V205.245H181.836V210H181.062L181.045 209.53ZM184.631 208.809L185.738 205.245H186.608L184.697 210.734C184.401 211.525 183.931 211.92 183.286 211.92L183.132 211.907L182.829 211.85V211.191L183.049 211.208C183.324 211.208 183.538 211.153 183.69 211.042C183.846 210.93 183.973 210.727 184.073 210.431L184.253 209.947L182.557 205.245H183.444L184.631 208.809ZM191.363 207.675C191.363 208.402 191.196 208.986 190.862 209.429C190.528 209.868 190.08 210.088 189.518 210.088C188.917 210.088 188.453 209.875 188.125 209.451L188.085 210H187.338V203.25H188.151V205.768C188.479 205.361 188.932 205.157 189.509 205.157C190.086 205.157 190.539 205.375 190.867 205.812C191.198 206.249 191.363 206.846 191.363 207.605V207.675ZM190.55 207.583C190.55 207.029 190.443 206.602 190.229 206.3C190.016 205.998 189.708 205.847 189.307 205.847C188.771 205.847 188.385 206.096 188.151 206.594V208.651C188.4 209.149 188.788 209.398 189.315 209.398C189.705 209.398 190.008 209.247 190.225 208.945C190.442 208.644 190.55 208.189 190.55 207.583ZM195.327 210C195.28 209.906 195.242 209.739 195.213 209.499C194.835 209.892 194.384 210.088 193.859 210.088C193.391 210.088 193.005 209.956 192.704 209.692C192.405 209.426 192.255 209.089 192.255 208.682C192.255 208.187 192.443 207.803 192.818 207.53C193.196 207.255 193.726 207.117 194.409 207.117H195.2V206.744C195.2 206.459 195.115 206.234 194.945 206.067C194.775 205.897 194.524 205.812 194.193 205.812C193.903 205.812 193.66 205.885 193.464 206.032C193.268 206.178 193.169 206.355 193.169 206.563H192.352C192.352 206.326 192.436 206.098 192.603 205.878C192.772 205.655 193.001 205.479 193.288 205.351C193.578 205.222 193.896 205.157 194.242 205.157C194.79 205.157 195.219 205.295 195.529 205.57C195.84 205.843 196.001 206.219 196.013 206.7V208.888C196.013 209.325 196.068 209.672 196.18 209.93V210H195.327ZM193.978 209.38C194.233 209.38 194.475 209.314 194.703 209.183C194.932 209.051 195.097 208.879 195.2 208.668V207.693H194.562C193.566 207.693 193.068 207.984 193.068 208.567C193.068 208.822 193.153 209.021 193.323 209.165C193.493 209.309 193.711 209.38 193.978 209.38ZM199.194 209.424C199.484 209.424 199.738 209.336 199.955 209.161C200.171 208.985 200.292 208.765 200.315 208.501H201.084C201.069 208.774 200.976 209.033 200.803 209.279C200.63 209.525 200.398 209.722 200.108 209.868C199.821 210.015 199.517 210.088 199.194 210.088C198.547 210.088 198.031 209.873 197.647 209.442C197.267 209.008 197.076 208.417 197.076 207.667V207.53C197.076 207.067 197.161 206.656 197.331 206.295C197.501 205.935 197.744 205.655 198.061 205.456C198.38 205.257 198.756 205.157 199.19 205.157C199.723 205.157 200.166 205.317 200.517 205.636C200.872 205.956 201.061 206.37 201.084 206.88H200.315C200.292 206.572 200.174 206.32 199.963 206.124C199.755 205.925 199.498 205.825 199.19 205.825C198.777 205.825 198.456 205.975 198.228 206.273C198.002 206.569 197.889 206.999 197.889 207.561V207.715C197.889 208.263 198.002 208.685 198.228 208.98C198.453 209.276 198.775 209.424 199.194 209.424ZM203.325 207.798L202.815 208.33V210H202.002V203.25H202.815V207.333L203.25 206.81L204.731 205.245H205.72L203.87 207.231L205.936 210H204.982L203.325 207.798ZM174.708 218.983L174.831 219.827L175.011 219.066L176.277 214.602H176.989L178.224 219.066L178.399 219.84L178.536 218.979L179.529 214.602H180.377L178.826 221H178.057L176.738 216.337L176.637 215.85L176.536 216.337L175.169 221H174.4L172.854 214.602H173.697L174.708 218.983ZM183.976 221C183.929 220.906 183.891 220.739 183.862 220.499C183.484 220.892 183.033 221.088 182.508 221.088C182.04 221.088 181.654 220.956 181.353 220.692C181.054 220.426 180.904 220.089 180.904 219.682C180.904 219.187 181.092 218.803 181.467 218.53C181.845 218.255 182.375 218.117 183.058 218.117H183.849V217.744C183.849 217.459 183.764 217.234 183.594 217.067C183.424 216.897 183.173 216.812 182.842 216.812C182.552 216.812 182.309 216.885 182.113 217.032C181.917 217.178 181.818 217.355 181.818 217.563H181.001C181.001 217.326 181.084 217.098 181.251 216.878C181.421 216.655 181.65 216.479 181.937 216.351C182.227 216.222 182.545 216.157 182.891 216.157C183.438 216.157 183.868 216.295 184.178 216.57C184.489 216.843 184.65 217.219 184.662 217.7V219.888C184.662 220.325 184.717 220.672 184.829 220.93V221H183.976ZM182.627 220.38C182.882 220.38 183.124 220.314 183.352 220.183C183.581 220.051 183.746 219.879 183.849 219.668V218.693H183.211C182.215 218.693 181.717 218.984 181.717 219.567C181.717 219.822 181.802 220.021 181.972 220.165C182.142 220.309 182.36 220.38 182.627 220.38ZM186.819 221H186.006V214.25H186.819V221ZM189.008 221H188.195V214.25H189.008V221ZM192.286 221.088C191.642 221.088 191.117 220.877 190.713 220.455C190.309 220.03 190.106 219.463 190.106 218.754V218.605C190.106 218.133 190.196 217.713 190.375 217.344C190.556 216.972 190.808 216.682 191.13 216.474C191.456 216.263 191.807 216.157 192.185 216.157C192.803 216.157 193.284 216.361 193.626 216.768C193.969 217.175 194.141 217.758 194.141 218.517V218.855H190.919C190.931 219.324 191.067 219.704 191.328 219.994C191.592 220.281 191.926 220.424 192.33 220.424C192.617 220.424 192.86 220.366 193.06 220.249C193.259 220.131 193.433 219.976 193.583 219.783L194.079 220.169C193.681 220.782 193.083 221.088 192.286 221.088ZM192.185 216.825C191.857 216.825 191.582 216.945 191.359 217.186C191.136 217.423 190.999 217.757 190.946 218.188H193.328V218.126C193.304 217.713 193.193 217.394 192.994 217.168C192.794 216.939 192.525 216.825 192.185 216.825ZM196.188 215.094V216.245H197.076V216.874H196.188V219.822C196.188 220.013 196.228 220.156 196.307 220.253C196.386 220.347 196.521 220.394 196.711 220.394C196.805 220.394 196.934 220.376 197.098 220.341V221C196.884 221.059 196.676 221.088 196.474 221.088C196.111 221.088 195.837 220.978 195.652 220.758C195.468 220.539 195.375 220.227 195.375 219.822V216.874H194.51V216.245H195.375V215.094H196.188Z" fill="#40B3E0"/>
<path d="M154.104 107.513C154.299 107.317 154.299 107.001 154.104 106.806L150.922 103.624C150.726 103.428 150.41 103.428 150.214 103.624C150.019 103.819 150.019 104.135 150.214 104.331L153.043 107.159L150.214 109.987C150.019 110.183 150.019 110.499 150.214 110.695C150.41 110.89 150.726 110.89 150.922 110.695L154.104 107.513ZM84.7955 107.659H153.75V106.659H84.7955V107.659Z" fill="white"/>
<path d="M214.896 106.806C214.701 107.001 214.701 107.317 214.896 107.513L218.078 110.695C218.274 110.89 218.59 110.89 218.786 110.695C218.981 110.499 218.981 110.183 218.786 109.987L215.957 107.159L218.786 104.331C218.981 104.135 218.981 103.819 218.786 103.624C218.59 103.428 218.274 103.428 218.078 103.624L214.896 106.806ZM215.25 107.659H284.205V106.659H215.25V107.659Z" fill="white"/>
<path d="M84.4419 117.056C84.2466 117.251 84.2466 117.567 84.4419 117.763L87.6239 120.945C87.8191 121.14 88.1357 121.14 88.331 120.945C88.5263 120.749 88.5263 120.433 88.331 120.237L85.5026 117.409L88.331 114.581C88.5263 114.385 88.5263 114.069 88.331 113.874C88.1357 113.678 87.8191 113.678 87.6239 113.874L84.4419 117.056ZM84.7955 117.909H153.75V116.909H84.7955V117.909Z" fill="white"/>
<path d="M284.558 117.763C284.753 117.567 284.753 117.251 284.558 117.056L281.376 113.874C281.181 113.678 280.864 113.678 280.669 113.874C280.474 114.069 280.474 114.385 280.669 114.581L283.497 117.409L280.669 120.237C280.474 120.433 280.474 120.749 280.669 120.945C280.864 121.14 281.181 121.14 281.376 120.945L284.558 117.763ZM215.25 117.909H284.205V116.909H215.25V117.909Z" fill="white"/>
<path d="M101.215 209.306C101.019 209.501 101.019 209.817 101.215 210.013L104.397 213.195C104.592 213.39 104.908 213.39 105.104 213.195C105.299 212.999 105.299 212.683 105.104 212.487L102.275 209.659L105.104 206.831C105.299 206.635 105.299 206.319 105.104 206.124C104.908 205.928 104.592 205.928 104.397 206.124L101.215 209.306ZM101.568 210.159H151.886V209.159H101.568V210.159Z" fill="white"/>
<path d="M267.785 208.149C267.981 207.954 267.981 207.637 267.785 207.442L264.603 204.26C264.408 204.065 264.092 204.065 263.896 204.26C263.701 204.455 263.701 204.772 263.896 204.967L266.725 207.795L263.896 210.624C263.701 210.819 263.701 211.136 263.896 211.331C264.092 211.526 264.408 211.526 264.603 211.331L267.785 208.149ZM267.432 207.295L217.114 207.295L217.114 208.295L267.432 208.295L267.432 207.295Z" fill="white"/>
<path d="M134.182 201.273H133.682V201.773H134.182V201.273ZM154.104 201.626C154.299 201.431 154.299 201.114 154.104 200.919L150.922 197.737C150.726 197.542 150.41 197.542 150.214 197.737C150.019 197.932 150.019 198.249 150.214 198.444L153.043 201.273L150.214 204.101C150.019 204.296 150.019 204.613 150.214 204.808C150.41 205.003 150.726 205.003 150.922 204.808L154.104 201.626ZM133.682 117.409V201.273H134.682V117.409H133.682ZM134.182 201.773H153.75V200.773H134.182V201.773Z" fill="white"/>
<path d="M234.818 199.409H235.318V199.909H234.818V199.409ZM214.896 199.763C214.701 199.567 214.701 199.251 214.896 199.056L218.078 195.874C218.274 195.678 218.59 195.678 218.786 195.874C218.981 196.069 218.981 196.385 218.786 196.581L215.957 199.409L218.786 202.237C218.981 202.433 218.981 202.749 218.786 202.945C218.59 203.14 218.274 203.14 218.078 202.945L214.896 199.763ZM235.318 117.409V199.409H234.318V117.409H235.318ZM234.818 199.909H215.25V198.909H234.818V199.909Z" fill="white"/>
<path d="M117.409 229.227H117.909V229.727H117.409V229.227ZM101.215 229.581C101.019 229.386 101.019 229.069 101.215 228.874L104.397 225.692C104.592 225.496 104.908 225.496 105.104 225.692C105.299 225.887 105.299 226.204 105.104 226.399L102.275 229.227L105.104 232.056C105.299 232.251 105.299 232.568 105.104 232.763C104.908 232.958 104.592 232.958 104.397 232.763L101.215 229.581ZM117.909 209.659V229.227H116.909V209.659H117.909ZM117.409 229.727H101.568V228.727H117.409V229.727Z" fill="white"/>
<path d="M250.659 228.295H250.159V228.795H250.659V228.295ZM267.785 228.649C267.981 228.454 267.981 228.137 267.785 227.942L264.603 224.76C264.408 224.565 264.092 224.565 263.896 224.76C263.701 224.955 263.701 225.272 263.896 225.467L266.725 228.295L263.896 231.124C263.701 231.319 263.701 231.636 263.896 231.831C264.092 232.026 264.408 232.026 264.603 231.831L267.785 228.649ZM250.159 207.795V228.295H251.159V207.795H250.159ZM250.659 228.795H267.432V227.795H250.659V228.795Z" fill="white"/>
<path d="M117.409 249.727H117.909V250.227H117.409V249.727ZM101.215 250.081C101.019 249.886 101.019 249.569 101.215 249.374L104.397 246.192C104.592 245.996 104.908 245.996 105.104 246.192C105.299 246.387 105.299 246.704 105.104 246.899L102.275 249.727L105.104 252.556C105.299 252.751 105.299 253.068 105.104 253.263C104.908 253.458 104.592 253.458 104.397 253.263L101.215 250.081ZM117.909 229.227V249.727H116.909V229.227H117.909ZM117.409 250.227H101.568V249.227H117.409V250.227Z" fill="white"/>
<path d="M250.659 247.864H250.159V248.364H250.659V247.864ZM267.785 248.217C267.981 248.022 267.981 247.705 267.785 247.51L264.603 244.328C264.408 244.133 264.092 244.133 263.896 244.328C263.701 244.523 263.701 244.84 263.896 245.035L266.725 247.864L263.896 250.692C263.701 250.887 263.701 251.204 263.896 251.399C264.092 251.594 264.408 251.594 264.603 251.399L267.785 248.217ZM250.159 228.295V247.864H251.159V228.295H250.159ZM250.659 248.364H267.432V247.364H250.659V248.364Z" fill="white"/>
<path d="M241.268 77.2695C241.268 76.7161 241.072 76.293 240.682 76C240.291 75.7005 239.588 75.388 238.572 75.0625C237.557 74.7305 236.753 74.4049 236.16 74.0859C234.546 73.2135 233.738 72.0384 233.738 70.5605C233.738 69.7923 233.953 69.1087 234.383 68.5098C234.819 67.9043 235.441 67.4323 236.248 67.0938C237.062 66.7552 237.973 66.5859 238.982 66.5859C239.998 66.5859 240.903 66.7715 241.697 67.1426C242.492 67.5072 243.107 68.0247 243.543 68.6953C243.986 69.3659 244.207 70.1276 244.207 70.9805H241.277C241.277 70.3294 241.072 69.8249 240.662 69.4668C240.252 69.1022 239.676 68.9199 238.934 68.9199C238.217 68.9199 237.661 69.0729 237.264 69.3789C236.867 69.6784 236.668 70.0755 236.668 70.5703C236.668 71.0326 236.899 71.4199 237.361 71.7324C237.83 72.0449 238.517 72.3379 239.422 72.6113C241.089 73.1126 242.303 73.7344 243.064 74.4766C243.826 75.2188 244.207 76.1432 244.207 77.25C244.207 78.4805 243.742 79.4473 242.811 80.1504C241.88 80.847 240.626 81.1953 239.051 81.1953C237.957 81.1953 236.961 80.9967 236.062 80.5996C235.164 80.196 234.477 79.6458 234.002 78.9492C233.533 78.2526 233.299 77.4453 233.299 76.5273H236.238C236.238 78.0964 237.176 78.8809 239.051 78.8809C239.747 78.8809 240.291 78.7409 240.682 78.4609C241.072 78.1745 241.268 77.7773 241.268 77.2695ZM250.877 81.1953C249.327 81.1953 248.064 80.7201 247.088 79.7695C246.118 78.819 245.633 77.5527 245.633 75.9707V75.6973C245.633 74.6361 245.838 73.6888 246.248 72.8555C246.658 72.0156 247.238 71.3711 247.986 70.9219C248.742 70.4661 249.601 70.2383 250.564 70.2383C252.01 70.2383 253.146 70.694 253.973 71.6055C254.806 72.5169 255.223 73.8092 255.223 75.4824V76.6348H248.494C248.585 77.3249 248.859 77.8783 249.314 78.2949C249.777 78.7116 250.359 78.9199 251.062 78.9199C252.15 78.9199 252.999 78.526 253.611 77.7383L254.998 79.291C254.575 79.89 254.002 80.3587 253.279 80.6973C252.557 81.0293 251.756 81.1953 250.877 81.1953ZM250.555 72.5234C249.995 72.5234 249.539 72.7122 249.188 73.0898C248.842 73.4674 248.621 74.0078 248.523 74.7109H252.449V74.4863C252.436 73.8613 252.267 73.3796 251.941 73.041C251.616 72.696 251.154 72.5234 250.555 72.5234ZM259.812 81H256.98V66H259.812V81ZM265.125 81H262.293V66H265.125V81Z" fill="white"/>
<circle cx="184.5" cy="205" r="27.8864" stroke="white" stroke-width="2"/>
<path d="M212.386 112.284C212.386 127.958 199.886 140.636 184.5 140.636C169.114 140.636 156.614 127.958 156.614 112.284C156.614 96.6104 169.114 83.9318 184.5 83.9318C199.886 83.9318 212.386 96.6104 212.386 112.284Z" stroke="white" stroke-width="2"/>
<circle cx="184.5" cy="184.5" r="179.5" stroke="url(#paint0_radial_26_146)" stroke-opacity="0.7" stroke-width="10"/>
<defs>
<radialGradient id="paint0_radial_26_146" cx="0" cy="0" r="1" gradientUnits="userSpaceOnUse" gradientTransform="translate(184.5 184.5) rotate(90) scale(184.5)">
<stop offset="0.947917" stop-color="#5D5095"/>
<stop offset="1" stop-color="#00B5BC"/>
</radialGradient>
<clipPath id="clip0_26_146">
<rect width="14.9091" height="14.9091" fill="white" transform="translate(270.227 220.841)"/>
</clipPath>
</defs>
</svg>
