<svg width="41" height="36" viewBox="0 0 41 36" fill="none" xmlns="http://www.w3.org/2000/svg">
<path d="M20.5 0.82373C19.762 0.82373 19.0313 0.973342 18.3495 1.26402C17.6678 1.5547 17.0483 1.98076 16.5265 2.51787C16.0047 3.05498 15.5908 3.69262 15.3084 4.39439C15.026 5.09615 14.8806 5.8483 14.8806 6.60789C14.8806 7.36747 15.026 8.11962 15.3084 8.82139C15.5908 9.52315 16.0047 10.1608 16.5265 10.6979C17.0483 11.235 17.6678 11.6611 18.3495 11.9517C19.0313 12.2424 19.762 12.392 20.5 12.392C21.9903 12.392 23.4197 11.7826 24.4735 10.6979C25.5273 9.61316 26.1194 8.14194 26.1194 6.60789C26.1194 5.07383 25.5273 3.60261 24.4735 2.51787C23.4197 1.43313 21.9903 0.82373 20.5 0.82373Z" fill="white"/>
<path d="M33.1562 3.71313C32.0374 3.71313 30.9643 4.17064 30.1731 4.98501C29.382 5.79938 28.9375 6.9039 28.9375 8.05559C28.9375 9.20729 29.382 10.3118 30.1731 11.1262C30.9643 11.9405 32.0374 12.3981 33.1562 12.3981C34.2751 12.3981 35.3482 11.9405 36.1394 11.1262C36.9305 10.3118 37.375 9.20729 37.375 8.05559C37.375 6.9039 36.9305 5.79938 36.1394 4.98501C35.3482 4.17064 34.2751 3.71313 33.1562 3.71313Z" fill="white"/>
<path d="M7.84375 3.71313C6.72487 3.71313 5.65181 4.17064 4.86064 4.98501C4.06947 5.79938 3.625 6.9039 3.625 8.05559C3.625 9.20729 4.06947 10.3118 4.86064 11.1262C5.65181 11.9405 6.72487 12.3981 7.84375 12.3981C8.96263 12.3981 10.0357 11.9405 10.8269 11.1262C11.618 10.3118 12.0625 9.20729 12.0625 8.05559C12.0625 6.9039 11.618 5.79938 10.8269 4.98501C10.0357 4.17064 8.96263 3.71313 7.84375 3.71313Z" fill="white"/>
<path d="M12.0625 18.1677C12.0677 17.4034 12.3663 16.6722 12.8932 16.1337C13.4201 15.5952 14.1325 15.293 14.875 15.293H26.125C26.8709 15.293 27.5863 15.598 28.1137 16.1409C28.6412 16.6838 28.9375 17.4201 28.9375 18.1879V26.8729C28.9373 27.784 28.7988 28.6894 28.5269 29.5565C27.9041 31.5213 26.6212 33.1933 24.9086 34.2721C23.196 35.351 21.1659 35.766 19.1827 35.4428C17.1995 35.1195 15.3933 34.0791 14.0883 32.5084C12.7833 30.9377 12.065 28.9396 12.0625 26.8729V18.1879V18.1677Z" fill="white"/>
<path d="M9.25 18.1879C9.25 17.1313 9.52281 16.1441 10.0037 15.293H3.625C2.87908 15.293 2.16371 15.598 1.63626 16.1409C1.10882 16.6838 0.8125 17.4201 0.8125 18.1879V25.4254C0.812117 26.6103 1.09439 27.7772 1.63452 28.8236C2.17465 29.87 2.95612 30.7639 3.91031 31.4268C4.86449 32.0896 5.9622 32.5012 7.10703 32.6254C8.25187 32.7495 9.40881 32.5825 10.4762 32.1388C9.66675 30.5077 9.2464 28.7016 9.25 26.87V18.1879Z" fill="white"/>
<path d="M31.75 18.1879V26.8729C31.75 28.7691 31.3084 30.5582 30.5237 32.1388C31.5912 32.5825 32.7481 32.7495 33.893 32.6254C35.0378 32.5012 36.1355 32.0896 37.0897 31.4268C38.0439 30.7639 38.8254 29.87 39.3655 28.8236C39.9056 27.7772 40.1879 26.6103 40.1875 25.4254V18.1879C40.1875 17.4201 39.8912 16.6838 39.3637 16.1409C38.8363 15.598 38.1209 15.293 37.375 15.293H30.9962C31.4744 16.1441 31.75 17.1313 31.75 18.1879Z" fill="white"/>
</svg>
