<svg width="25" height="25" viewBox="0 0 25 25" fill="none" xmlns="http://www.w3.org/2000/svg">
<path d="M20.3672 3.12187C20.1164 3.14012 19.8702 3.19896 19.6383 3.29609H19.6352C19.4125 3.38437 18.3539 3.82968 16.7445 4.50468L10.9773 6.93359C6.83906 8.67578 2.77109 10.3914 2.77109 10.3914L2.81953 10.3727C2.81953 10.3727 2.53906 10.4648 2.24609 10.6656C2.0651 10.7808 1.90936 10.9315 1.78828 11.1086C1.64453 11.3195 1.52891 11.6422 1.57188 11.9758C1.64219 12.5398 2.00781 12.8781 2.27031 13.0648C2.53594 13.2539 2.78906 13.3422 2.78906 13.3422H2.79531L6.61016 14.6273C6.78125 15.1766 7.77266 18.4359 8.01094 19.1867C8.15156 19.6352 8.28828 19.9156 8.45938 20.1297C8.54219 20.2391 8.63906 20.3305 8.75547 20.4039C8.81599 20.4391 8.88051 20.4669 8.94766 20.4867L8.90859 20.4773C8.92031 20.4805 8.92969 20.4898 8.93828 20.493C8.96953 20.5016 8.99063 20.5047 9.03047 20.5109C9.63438 20.6937 10.1195 20.3187 10.1195 20.3187L10.1469 20.2969L12.3992 18.2461L16.1742 21.1422L16.2602 21.1789C17.0469 21.5242 17.8438 21.332 18.2648 20.993C18.6891 20.6516 18.8539 20.2148 18.8539 20.2148L18.8813 20.1445L21.7984 5.2C21.8813 4.83125 21.9023 4.48593 21.8109 4.15078C21.7167 3.81158 21.499 3.51985 21.2008 3.33281C20.9503 3.18056 20.6599 3.10707 20.3672 3.12187ZM20.2883 4.72343C20.2852 4.77265 20.2945 4.76718 20.2727 4.86172V4.87031L17.3828 19.6594C17.3703 19.6805 17.3492 19.7266 17.2914 19.7727C17.2305 19.8211 17.182 19.8516 16.9281 19.7508L12.3109 16.2109L9.52188 18.7531L10.1078 15.0109L17.6516 7.97968C17.9625 7.69062 17.8586 7.62968 17.8586 7.62968C17.8805 7.275 17.3891 7.52578 17.3891 7.52578L7.87656 13.4187L7.87344 13.4031L3.31406 11.868V11.8648L3.30235 11.8625C3.31034 11.8598 3.31816 11.8567 3.32578 11.8531L3.35078 11.8406L3.375 11.832C3.375 11.832 7.44609 10.1164 11.5844 8.37422C13.6563 7.50156 15.7438 6.62265 17.3492 5.94453C18.9547 5.27031 20.1414 4.77578 20.2086 4.74922C20.2727 4.72422 20.2422 4.72422 20.2883 4.72422V4.72343Z" fill="#F8F8F8"/>
</svg>
