<svg width="25" height="25" viewBox="0 0 25 25" fill="none" xmlns="http://www.w3.org/2000/svg">
<path d="M20.3672 3.12186C20.1164 3.14011 19.8702 3.19895 19.6383 3.29608H19.6352C19.4125 3.38436 18.3539 3.82968 16.7445 4.50468L10.9774 6.93358C6.83908 8.67577 2.77111 10.3914 2.77111 10.3914L2.81955 10.3726C2.81955 10.3726 2.53908 10.4648 2.24611 10.6656C2.06512 10.7808 1.90937 10.9315 1.7883 11.1086C1.64455 11.3195 1.52892 11.6422 1.57189 11.9758C1.6422 12.5398 2.00783 12.8781 2.27033 13.0648C2.53595 13.2539 2.78908 13.3422 2.78908 13.3422H2.79533L6.61017 14.6273C6.78127 15.1765 7.77267 18.4359 8.01095 19.1867C8.15158 19.6351 8.2883 19.9156 8.45939 20.1297C8.5422 20.239 8.63908 20.3305 8.75548 20.4039C8.816 20.4391 8.88053 20.4669 8.94767 20.4867L8.90861 20.4773C8.92033 20.4805 8.9297 20.4898 8.9383 20.493C8.96955 20.5016 8.99064 20.5047 9.03048 20.5109C9.63439 20.6937 10.1195 20.3187 10.1195 20.3187L10.1469 20.2969L12.3992 18.2461L16.1742 21.1422L16.2602 21.1789C17.0469 21.5242 17.8438 21.332 18.2649 20.993C18.6891 20.6516 18.8539 20.2148 18.8539 20.2148L18.8813 20.1445L21.7985 5.19999C21.8813 4.83124 21.9024 4.48593 21.811 4.15077C21.7167 3.81157 21.4991 3.51984 21.2008 3.3328C20.9503 3.18055 20.6599 3.10706 20.3672 3.12186ZM20.2883 4.72343C20.2852 4.77264 20.2945 4.76718 20.2727 4.86171V4.8703L17.3828 19.6594C17.3703 19.6805 17.3492 19.7265 17.2914 19.7726C17.2305 19.8211 17.182 19.8515 16.9281 19.7508L12.311 16.2109L9.52189 18.7531L10.1078 15.0109L17.6516 7.97967C17.9625 7.69061 17.8586 7.62967 17.8586 7.62967C17.8805 7.27499 17.3891 7.52577 17.3891 7.52577L7.87658 13.4187L7.87345 13.4031L3.31408 11.868V11.8648L3.30236 11.8625C3.31035 11.8598 3.31818 11.8567 3.3258 11.8531L3.3508 11.8406L3.37502 11.832C3.37502 11.832 7.44611 10.1164 11.5844 8.37421C13.6563 7.50155 15.7438 6.62264 17.3492 5.94452C18.9547 5.2703 20.1414 4.77577 20.2086 4.74921C20.2727 4.72421 20.2422 4.72421 20.2883 4.72421V4.72343Z" fill="#F8F8F8"/>
</svg>
